<?xml version="1.0" encoding="utf-8"?>
<!-- Generator: Adobe Illustrator 17.0.0, SVG Export Plug-In . SVG Version: 6.00 Build 0)  -->
<!DOCTYPE svg PUBLIC "-//W3C//DTD SVG 1.1//EN" "http://www.w3.org/Graphics/SVG/1.1/DTD/svg11.dtd">
<svg version="1.1" id="Layer_1" xmlns="http://www.w3.org/2000/svg" xmlns:xlink="http://www.w3.org/1999/xlink" x="0px" y="0px"
	 width="1319px" height="1039.2px" viewBox="0 0 1319 1039.2" enable-background="new 0 0 1319 1039.2" xml:space="preserve">
<g>
	<g>
		<g>
			<g>
				<path fill="#FFFFFF" d="M619,664.3"/>
			</g>
		</g>
		<g>
			<g>
				<path fill="#FFFFFF" d="M637.2,639.4c10.5-42,48.3-75.9,103.9-93.1c66.5-20.5,138.7-10.5,181.5,24.8l-17.9,35.1
					c-12.3-7.9-42.4-24.8-73-22.6l0.8,11.8c34.6-2.4,70.5,24,70.9,24.3l5.6,4.2l28.3-55.6l-3.4-3c-45.3-40.3-124.2-52.5-196.3-30.2
					c-59.6,18.4-100.4,55.4-111.9,101.5L637.2,639.4z"/>
			</g>
		</g>
		<g>
			<g>
				<path fill="#FFFFFF" d="M857.6,933.6c7.8-24.7-19-100.5-30.7-117c-6.3-8.8-12.4-18.1-18.4-27c-15.2-23-31-46.7-51.2-66.3
					c-23.2-22.4-45.8-27.8-72.1-34.1c-5.8-1.4-11.7-2.8-18-4.5c-30.5-8.2-29.9-46.2-29.9-46.6l0.2-7.3l-7.2,1.3
					c-0.7,0.1-67.9,11.7-100.5-30.9c-12.7-16.6-19.9-47.2-19.6-83.9c0.3-33.1,6.4-66.5,16.1-87.1C580.4,315.4,737.6,312,802.8,315.9
					l0.7-11.8c-142.7-8.5-247.6,35.6-287.7,121.1c-20.3,43.2-27.3,141.3,4.8,183.2c15.4,20.1,39.8,32.6,70.4,36.1
					c14.7,1.7,27.5,0.9,34.9,0.1c1.6,17.6,10.8,44.1,38.4,51.5c6.4,1.7,12.4,3.2,18.3,4.5c25.6,6.1,45.8,10.9,66.6,31.1
					c19.3,18.7,34.7,41.9,49.6,64.3c6,9.1,12.2,18.4,18.6,27.4c11.3,15.9,35.1,87.3,29,106.6L857.6,933.6z"/>
			</g>
		</g>
		<g>
			<g>
				<path fill="#FFFFFF" d="M1004.3,796.1l4.7-0.7c33.6-5,55.5-30.4,58.4-68.1c0.4-4.9,0.3-8.9,0.2-12.1c-0.2-8.1-0.2-10.6,6.6-16.7
					c10.3-9.3,22.8-15.5,34.8-21.5c23.6-11.8,48.1-23.9,54.3-58.8c8.9-50-5.3-106.2-39.9-158.3c-31.2-46.9-76.1-86.6-123.3-109
					c-29.7-14.1-66.2-26-105.5-34.4c-8.5-1.8-17.3-3.5-25.9-5l-5.8-1l-9.3,53.9l11.6,2l7.3-42.3c6.6,1.2,13.2,2.5,19.6,3.9
					c38.5,8.2,74.1,19.8,102.9,33.5c45.3,21.5,88.4,59.7,118.5,104.9c33,49.6,46.5,102.7,38.1,149.7c-5.2,29-25,38.9-47.9,50.3
					c-12.8,6.3-26,12.9-37.5,23.3c-10.8,9.7-10.6,16.7-10.5,25.7c0.1,3.1,0.1,6.6-0.2,11c-2.4,30.5-18.2,50.8-43.7,56.5l-14.1-36.7
					c8.4-6.5,26-23.7,21.1-51.2l-11.6,2.1c4.8,27-19.4,41.7-19.6,41.8l-4.3,2.6L1004.3,796.1z"/>
			</g>
		</g>
		<g>
			<g>
				<path fill="#FFFFFF" d="M900.3,929.1l11.4-3.1c-0.1-0.3-7-26.5-13.8-75c-3.6-25.8,10.5-38.4,51.9-46.6l-2.3-11.6
					c-35.2,7-67,19.1-61.3,59.9C893.1,902,900,928,900.3,929.1z"/>
			</g>
		</g>
		<g>
			<g>
				<path fill="#FFFFFF" d="M615.2,472.3l9-7.7l-26.7-31.3c30.3-39.4,104.5-60.2,105.2-60.4l6.6-1.8l-23.8-53.5l-10.8,4.8l18.3,41.1
					c-20.3,6.4-81.9,28.5-107.9,66.8l-2.5,3.7L615.2,472.3z"/>
			</g>
		</g>
		<g>
			<g>
				<path fill="#FFFFFF" d="M695.7,560.2l9.7-6.7l-35.2-50.8l-4.5,2.1c-1.8,0.8-44.9,21-62.3,48.6l10,6.3
					c12.5-19.9,41.7-36.3,52.8-42L695.7,560.2z"/>
			</g>
		</g>
		<g>
			<g>
				<path fill="#FFFFFF" d="M997.6,356.2"/>
			</g>
		</g>
		<g>
			<g>
				<path fill="#FFFFFF" d="M1095.2,564.1l62.4,0.2l0-11.8l-57.6-0.2c-1.9-8.2-6.5-25.9-15-45.1c-15.7-35.5-36-58-60.6-67l-2.8-1
					L956.7,483l6.6,9.8l59.7-40.5c49.4,20.9,66.2,106.1,66.3,107l0.9,4.8L1095.2,564.1z"/>
			</g>
		</g>
		<g>
			<g>
				<path fill="#FFFFFF" d="M842.3,756.4c32,0.1,51-21.1,62.6-37.3c1.3-1.8,8-11.6,14.3-21.2c3.6-5.5,6.4-9.9,8.4-13.2
					c3.5-5.8,6.3-10.4,1.8-14l-0.8-0.5c-0.1-0.1-28.5-15-52.3-27.5l-5.6-2.9l-2.6,5.8c-0.1,0.2-10.9,24-33.7,31.2
					c-15,4.7-32,1.3-50.8-10.1c-28-17-49.4-21-63.4-11.9c-19.9,12.9-15.8,46.5-15.6,48l11.7-1.5l-5.9,0.8l5.9-0.7
					c-1-7.7-1-29.2,10.4-36.6c9.7-6.3,27.3-2.1,50.8,12.1c21.8,13.2,42.2,17,60.6,11.2c20.6-6.5,32.8-23.2,37.9-32.1
					c10.1,5.3,32,16.8,42,22.1c-5.6,9.3-19.6,30-22.6,34.2c-16.8,23.4-34,33.4-55.7,32.3l-0.6,11.8
					C840.1,756.4,841.2,756.4,842.3,756.4z"/>
			</g>
		</g>
		<g>
			<g>
				<path fill="#FFFFFF" d="M749.9,494.2l5.8-3.4c0.3-0.1,27.8-15.6,82.4-10.5l1.1-11.8c-44.3-4.1-72,4.4-83.4,9.2l-21.2-50.2
					c90-42.9,187.6,22.1,188.6,22.7l4,2.7l87-86.2l-8.3-8.4l-80.2,79.4C905,425,812.3,373.6,724.3,419.5l-4.8,2.5L749.9,494.2z"/>
			</g>
		</g>
		<g>
			<g>
				
					<rect x="1024.1" y="505.2" transform="matrix(-0.8163 0.5777 -0.5777 -0.8163 2203.9712 321.2446)" fill="#FFFFFF" width="53.6" height="11.8"/>
			</g>
		</g>
		<g>
			<g>
				<path fill="#FFFFFF" d="M549.8,623.5l33.5-34.9l-3.8-4.1c-0.6-0.6-55.2-60.9-22.7-107.8l-9.7-6.7c-15.8,22.8-16.6,51.4-2.3,82.7
					c7.5,16.3,17.2,29.3,22.4,35.6l-25.9,27L549.8,623.5z"/>
			</g>
		</g>
		<g>
			<g>
				<path fill="#FFFFFF" d="M1014.6,640.9c26.4,0.1,55.3-14.4,76.1-30.5l-7.2-9.4c-22.7,17.5-58.6,34.7-85,25.4
					c-19.8-7-20.7-22.3-20.4-46.6c0.2-16.1,0.4-32.7-8.6-46.5c-21.6-33.3-67.1-46.6-85.6-50.8l-2.6,11.5
					c17.1,3.9,59.1,16.1,78.3,45.7c7,10.8,6.8,25.6,6.6,39.9c-0.3,22.4-0.6,47.7,28.2,57.9C1001,639.9,1007.8,640.9,1014.6,640.9z"
					/>
			</g>
		</g>
		<g>
			<g>
				
					<rect x="703" y="609.8" transform="matrix(-0.7531 0.6579 -0.6579 -0.7531 1662.0208 650.7088)" fill="#FFFFFF" width="11.8" height="54.9"/>
			</g>
		</g>
	</g>
	<g opacity="0.71">
		<g>
			<path fill="#C5E9EA" d="M906,927.6c0,0-7-26.2-13.9-75.7c-6.9-49.5,47.5-52.3,116-62.4c33.3-4.9,50.9-30.8,53.3-62.7
				c1.3-17.2-3.3-21.9,8.7-32.7c31.4-28.3,78.5-28,87.3-76.9c18.8-105.6-69.6-218.1-159.9-261c-35-16.6-80.6-30.5-129.9-38.8
				c-16.5-2.8-33.3-4.9-50.4-6.4c-120.3-10.1-248.9,16.1-296.2,116.7c-19.7,42-26.1,137.7,4.1,177.1c35.3,46,106.2,33.1,106.2,33.1
				s-1.1,43,34.3,52.5c34.7,9.3,60.6,11.1,87.5,37.1c27.7,26.7,46.7,61.4,68.9,92.5c11.6,16.2,36.8,89.6,29.8,111.8"/>
		</g>
	</g>
</g>
<g>
	<path fill="#FFFFFF" d="M1317,1039.2l-6.9-1.3c0.8-3.9,1.3-7.7,1.6-11.5l7,0.6C1318.4,1031,1317.8,1035.1,1317,1039.2z
		 M959.6,1039.1c-2.7,0-5.4-0.3-8-0.9l1.5-6.8c2.9,0.6,5.8,0.8,8.8,0.6c0.7,0,1.3-0.1,1.9-0.2l0.8,7c-0.7,0.1-1.5,0.2-2.2,0.2
		C961.4,1039.1,960.5,1039.1,959.6,1039.1z M977.1,1035.7l-2.5-6.5c3.4-1.3,6.6-3.1,9.6-5.4l4.2,5.6
		C984.8,1032.1,981,1034.2,977.1,1035.7z M939.4,1033.5c-3.5-2-6.9-4.6-10.2-7.6l4.8-5.1c2.9,2.7,5.9,5,8.9,6.7L939.4,1033.5z
		 M997.6,1020.8l-5.3-4.6c2.3-2.7,4.6-5.8,6.8-9.2l5.9,3.7C1002.7,1014.4,1000.2,1017.8,997.6,1020.8z M920.8,1016.7
		c-2.4-3-4.8-6.4-7.2-10l5.9-3.8c2.2,3.5,4.5,6.7,6.8,9.5L920.8,1016.7z M1312,1014.8c-0.1-3.8-0.5-7.7-1.2-11.5l6.9-1.1
		c0.7,4.1,1.1,8.2,1.2,12.4L1312,1014.8z M1011,999.8l-6.3-3c1.6-3.3,3.1-6.8,4.7-10.8l6.5,2.6
		C1014.2,992.7,1012.6,996.4,1011,999.8z M907.3,996.1c-1.8-3.3-3.7-7-5.6-10.8l6.3-3.1c1.8,3.7,3.7,7.3,5.5,10.5L907.3,996.1z
		 M1308.3,992.1c-1.1-3.6-2.4-7.3-3.9-10.9l6.4-2.7c1.6,3.8,3,7.8,4.2,11.7L1308.3,992.1z M1020.1,977.2l-6.6-2.3
		c1.3-3.6,2.4-7.2,3.6-10.6l0.2-0.7l6.6,2.2l-0.2,0.7C1022.6,969.9,1021.4,973.5,1020.1,977.2z M896.6,974.3
		c-1.5-3.3-3-6.8-4.8-11.1l6.4-2.8c1.8,4.3,3.3,7.7,4.8,10.9L896.6,974.3z M1299.3,970.7c-1.8-3.3-3.9-6.7-6.1-10l5.8-3.9
		c2.3,3.5,4.5,7,6.4,10.5L1299.3,970.7z M1027.8,954.5l-6.6-2.4c1.5-4.1,2.9-7.8,4.4-11.4l6.5,2.7
		C1030.6,946.9,1029.2,950.5,1027.8,954.5z M887,952.2c-1.5-3.4-3.2-7.4-4.8-10.9l6.4-2.9c1.7,3.6,3.4,7.6,4.9,11.1L887,952.2z
		 M1286.3,951.2c-2.3-3-4.8-6-7.5-9.1l5.3-4.6c2.8,3.2,5.4,6.3,7.8,9.4L1286.3,951.2z M1270.7,933.4c-2.6-2.7-5.4-5.5-8.4-8.4l4.9-5
		c3.1,3,5.9,5.8,8.5,8.6L1270.7,933.4z M1036.9,932.7l-6.3-3.1c1.9-3.9,3.9-7.5,6-10.8l5.9,3.7
		C1040.6,925.7,1038.7,929.1,1036.9,932.7z M877.2,930.1c-1.5-3.7-2.9-7.6-4.1-11.5l6.7-2.1c1.2,3.8,2.6,7.5,4,11.1L877.2,930.1z
		 M1253.7,916.8c-1.5-1.4-2.9-2.7-4.4-4.1c-1.4-1.3-2.9-2.5-4.4-3.7l4.4-5.5c1.6,1.3,3.2,2.7,4.7,4c1.5,1.4,3,2.7,4.4,4.1
		L1253.7,916.8z M1049.2,913.2l-5.4-4.4c2.7-3.3,5.6-6.3,8.6-9.1l4.7,5.2C1054.3,907.4,1051.7,910.2,1049.2,913.2z M869.8,906.8
		c-1-3.9-1.9-7.9-2.6-11.9l6.9-1.3c0.7,3.9,1.6,7.8,2.5,11.5L869.8,906.8z M1235.5,902.3c-3.2-2-6.6-3.9-10.2-5.6l3.1-6.3
		c3.8,1.8,7.4,3.9,10.8,6L1235.5,902.3z M1066.2,897.9l-3.8-5.9c3.4-2.2,7.1-4.2,10.9-6l2.9,6.4
		C1072.7,894,1069.3,895.9,1066.2,897.9z M1214.6,892c-3.6-1.4-7.3-2.6-11.1-3.8l2-6.7c4,1.2,7.9,2.5,11.6,3.9L1214.6,892z
		 M1087,888.2l-2.2-6.7c3.7-1.2,7.7-2.3,11.9-3.2l1.5,6.8C1094.3,886,1090.5,887.1,1087,888.2z M1192.1,885.3
		c-3.8-0.8-7.6-1.6-11.6-2.2l1.1-6.9c4.1,0.6,8.1,1.4,12,2.3L1192.1,885.3z M1109.8,883l-1.1-6.9c3.9-0.6,8-1.1,12.1-1.5l0.7,7
		C1117.6,882,1113.7,882.5,1109.8,883z M865.2,882.9c-0.5-4-1-8.1-1.3-12.1l7-0.5c0.3,3.9,0.7,7.9,1.2,11.7L865.2,882.9z
		 M1168.8,881.5c-3.9-0.4-7.8-0.7-11.8-0.9l0.3-7c4.1,0.2,8.2,0.5,12.2,0.9L1168.8,881.5z M1133.3,880.7l-0.3-7
		c4-0.2,8.1-0.3,12.2-0.3l0,7C1141.3,880.4,1137.3,880.5,1133.3,880.7z M863.4,858.6c0-1.3,0-2.7,0-4c0-2.7,0.1-5.5,0.2-8.2l7,0.3
		c-0.1,2.6-0.2,5.2-0.2,7.9c0,1.3,0,2.6,0,3.9L863.4,858.6z M871.3,834.9l-7-0.7c0.4-4.1,1-8.2,1.7-12.1l6.9,1.2
		C872.3,827,871.7,830.9,871.3,834.9z M875.4,811.8l-6.8-1.8c1-4.1,2.3-8,3.6-11.8l6.6,2.4C877.5,804.2,876.4,807.9,875.4,811.8z
		 M883.4,790.2l-6.2-3.3c2-3.7,4.2-7.1,6.9-10.5l5.5,4.3C887.2,783.7,885.2,786.8,883.4,790.2z M897.3,772.1l-4.9-5
		c2.7-2.6,5.6-5.2,9.2-8.1l4.4,5.4C902.7,767.2,899.9,769.6,897.3,772.1z M915.5,757l-4.3-5.6c2.9-2.2,6.2-4.8,9.3-7.3l4.4,5.4
		C921.8,752.2,918.4,754.8,915.5,757z M934.2,741.4l-4.9-5c2.9-2.8,5.4-5.6,7.7-8.6l5.5,4.3C940,735.3,937.3,738.3,934.2,741.4z
		 M949.4,721.7l-6.1-3.4c0.8-1.4,1.5-2.8,2.2-4.3c1-2,1.7-4,2.3-5.9l6.7,2c-0.7,2.3-1.6,4.6-2.7,7
		C951.1,718.6,950.3,720.2,949.4,721.7z M948.9,697.5c-0.3-3.3-1.2-6.7-2.9-10.4l6.4-2.8c1.9,4.4,3.1,8.5,3.4,12.6L948.9,697.5z
		 M940.5,677.1c-1.9-3-4.1-6.1-6.7-9.8l5.7-4.1c2.7,3.8,4.9,6.9,6.9,10L940.5,677.1z M926.8,657.5c-0.5-0.7-1-1.4-1.5-2.2
		c-1.5-2.2-3.4-4.3-5.6-6.2l4.5-5.4c2.7,2.3,5,4.8,6.9,7.5c0.5,0.7,1,1.4,1.5,2.1L926.8,657.5z M910.3,643.3
		c-3.1-1.5-6.6-2.9-10.7-4.1l2.1-6.7c4.4,1.4,8.2,2.8,11.7,4.5L910.3,643.3z M888.3,636.2c-3.4-0.8-7.2-1.5-11.6-2.3l1.2-6.9
		c4.5,0.8,8.4,1.6,11.9,2.3L888.3,636.2z M864.9,631.9l-4.6-0.7c-2.4-0.4-4.9-0.8-7.3-1.1l1.1-6.9c2.4,0.4,4.9,0.8,7.3,1.1l4.6,0.7
		L864.9,631.9z M841.1,628.1c-4.3-0.8-8.2-1.5-11.9-2.3l1.5-6.8c3.6,0.8,7.4,1.5,11.7,2.3L841.1,628.1z M817.3,622.9
		c-4.1-1.1-8-2.4-11.7-3.7l2.4-6.6c3.5,1.2,7.3,2.4,11.2,3.5L817.3,622.9z M794.2,614.5c-3.8-1.8-7.5-3.8-10.9-6l3.7-5.9
		c3.1,2,6.5,3.8,10.1,5.5L794.2,614.5z M773.3,601.2c-3.2-2.7-6.1-5.7-8.8-8.9l5.3-4.5c2.4,2.9,5.1,5.6,8,8.1L773.3,601.2z
		 M757.2,582.1c-2.1-3.5-4-7.2-5.6-11.1l6.5-2.7c1.5,3.6,3.2,7,5.2,10.2L757.2,582.1z"/>
</g>
<g>
	<g>
		<path fill="#FFFFFF" d="M716.6,513.1c-2.3-3.1-4.9-6.3-7.4-9.3l5.4-4.4c2.5,3.1,5.1,6.3,7.5,9.5L716.6,513.1z M701.6,494.4
			c-2.9-3.7-5.2-6.8-7.3-9.7l5.7-4c2,2.9,4.3,5.9,7.1,9.4L701.6,494.4z M687.6,474.3c-2.2-3.9-4-7.6-5.4-11.3l6.5-2.5
			c1.3,3.3,2.9,6.7,4.9,10.3L687.6,474.3z M679,450.7c-0.3-2-0.4-4.1-0.4-6.1c0-2.3,0.2-4.6,0.5-6.9l6.9,1.1
			c-0.3,1.9-0.5,3.9-0.5,5.8c0,1.7,0.1,3.4,0.3,5.1L679,450.7z M689.3,428.3l-6.3-3l0.3-0.6c1.7-3.6,4.2-6.9,7.6-10l4.8,5.1
			c-2.7,2.6-4.7,5.2-6.1,7.9L689.3,428.3z M704.7,413.2l-3.6-6c3.1-1.9,6.6-3.8,10.9-5.8l3.1,6.3C711,409.6,707.6,411.4,704.7,413.2
			z M725.8,402.7l-2.8-6.4c2.5-1.1,5-2.2,7.5-3.3l3.5-1.5l2.8,6.4l-3.5,1.5C730.7,400.5,728.2,401.6,725.8,402.7z M747.8,393
			l-2.9-6.4c3.9-1.8,7.4-3.5,10.7-5.1l3.1,6.3C755.4,389.5,751.8,391.2,747.8,393z M769.5,382.1l-3.5-6.1c3.5-2,6.9-4.1,10-6.2
			l3.9,5.8C776.7,377.8,773.2,380,769.5,382.1z M789.9,368.4l-4.4-5.5c3.1-2.5,6-5.1,8.7-7.7l4.9,5
			C796.3,363,793.2,365.8,789.9,368.4z M807.5,351.1l-5.4-4.4c2.4-3,4.7-6.1,6.8-9.4l5.9,3.8C812.6,344.6,810.1,347.9,807.5,351.1z
			 M820.8,330.3l-6.3-3.1c0.3-0.7,0.7-1.4,1-2.2c1.2-2.5,2-5.3,2.5-8.2l6.9,1.2c-0.6,3.5-1.6,6.9-3,10
			C821.6,328.8,821.2,329.6,820.8,330.3z M267.2,306l-1.2,0l0-7l1.2,0c3.5,0,7.1,0,10.8-0.1l0.1,7C274.4,306,270.7,306,267.2,306z
			 M818.3,305.9c-0.4-3.6-1.2-7.3-2.5-10.9l6.6-2.3c1.4,4.1,2.4,8.3,2.8,12.5L818.3,305.9z M253.9,305.8c-4.1-0.1-8.1-0.3-12.1-0.5
			l0.4-7c3.9,0.2,7.9,0.4,11.9,0.5L253.9,305.8z M290.2,305.5l-0.3-7c3.9-0.2,7.9-0.4,11.9-0.6l0.4,7
			C298.1,305.2,294,305.4,290.2,305.5z M229.8,304.5c-4.1-0.4-8.1-0.8-12.1-1.2l0.8-6.9c3.9,0.5,7.8,0.9,11.8,1.2L229.8,304.5z
			 M314.2,304.1l-0.5-7c2.7-0.2,5.5-0.4,8.2-0.6l3.7-0.3l0.6,7l-3.8,0.3C319.7,303.7,317,303.9,314.2,304.1z M338.2,302.1l-0.6-7
			c4-0.4,8-0.7,11.9-1.1l0.6,7C346.2,301.4,342.2,301.8,338.2,302.1z M205.7,301.6c-4-0.6-8-1.4-11.9-2.1l1.4-6.9
			c3.8,0.8,7.7,1.5,11.7,2.1L205.7,301.6z M362.1,299.9l-0.7-7c4-0.4,7.9-0.8,11.9-1.2l0.7,7C370.1,299.1,366.1,299.5,362.1,299.9z
			 M386,297.4l-0.8-7c4-0.4,7.9-0.9,11.9-1.4l0.8,7C394,296.5,390,297,386,297.4z M181.9,296.8c-4-1-7.9-2-11.7-3.1l2-6.7
			c3.7,1.1,7.6,2.1,11.4,3.1L181.9,296.8z M409.9,294.6l-0.9-6.9c4-0.5,7.9-1,11.9-1.5l0.9,6.9C417.9,293.6,413.9,294.1,409.9,294.6
			z M433.8,291.4l-1-6.9c4-0.6,7.9-1.2,11.8-1.8l1.1,6.9C441.7,290.2,437.7,290.8,433.8,291.4z M158.5,290
			c-3.8-1.3-7.7-2.8-11.4-4.2l2.6-6.5c3.6,1.5,7.3,2.8,11.1,4.1L158.5,290z M457.6,287.7l-1.1-6.9c4-0.7,7.9-1.3,11.8-2l1.2,6.9
			C465.6,286.4,461.6,287.1,457.6,287.7z M811,284.8c-2-3.3-4.3-6.2-6.9-8.7l4.9-5c3,2.9,5.6,6.3,8,10.1L811,284.8z M481.3,283.5
			l-1.3-6.9c3.9-0.7,7.9-1.5,11.7-2.3l1.4,6.9C489.2,282,485.2,282.8,481.3,283.5z M135.9,280.8c-3.6-1.8-7.2-3.7-10.8-5.8l3.6-6
			c3.4,2,6.9,3.9,10.3,5.6L135.9,280.8z M504.9,278.7l-1.5-6.8c3.9-0.8,7.8-1.7,11.7-2.6l1.5,6.8C512.7,277,508.8,277.9,504.9,278.7
			z M528.3,273.4l-1.6-6.8c3.9-0.9,7.8-1.8,11.7-2.7l1.6,6.8C536.1,271.6,532.2,272.5,528.3,273.4z M795.2,269.2
			c-3.1-2.1-6.5-4-10-5.8l3.1-6.3c3.8,1.9,7.4,4,10.7,6.2L795.2,269.2z M114.8,268.3c-3.3-2.3-6.6-4.7-9.8-7.3l4.4-5.5
			c3.1,2.5,6.3,4.8,9.4,7L114.8,268.3z M551.7,268l-1.6-6.8c3.9-0.9,7.8-1.8,11.7-2.7l1.6,6.8C559.5,266.2,555.6,267.1,551.7,268z
			 M575.1,262.6l-1.5-6.8c3.9-0.9,7.8-1.7,11.8-2.6l1.5,6.8C582.9,260.9,579,261.8,575.1,262.6z M774.4,258.7
			c-3.5-1.4-7.3-2.6-11.1-3.7l2-6.7c4,1.2,7.9,2.5,11.6,3.9L774.4,258.7z M598.5,257.7l-1.4-6.9c4.1-0.8,8-1.6,11.8-2.3l1.3,6.9
			C606.4,256.1,602.5,256.9,598.5,257.7z M622,253.4l-1.1-6.9c4-0.7,8.1-1.3,11.9-1.8l1,6.9C629.9,252.2,626,252.8,622,253.4z
			 M95.7,253.1c-3-2.7-5.9-5.5-8.8-8.4l5-4.9c2.8,2.8,5.7,5.6,8.6,8.1L95.7,253.1z M752,252.1c-3.7-0.8-7.6-1.5-11.6-2.2l1.1-6.9
			c4.1,0.6,8.1,1.4,12,2.2L752,252.1z M645.6,250.1l-0.8-7c4-0.5,8.1-0.9,12-1.3l0.7,7C653.6,249.2,649.6,249.6,645.6,250.1z
			 M728.6,248.4c-3.8-0.4-7.8-0.7-11.8-1l0.4-7c4.1,0.3,8.2,0.6,12.1,1L728.6,248.4z M669.3,247.8l-0.5-7c4.1-0.3,8.1-0.5,12.1-0.7
			l0.3,7C677.3,247.3,673.3,247.6,669.3,247.8z M705,246.9c-3.9-0.1-7.9-0.1-11.9-0.1l-0.1-7c4.1,0,8.2,0,12.1,0.1L705,246.9z
			 M78.5,235.9c-2.7-3-5.3-6.1-7.9-9.2l5.4-4.4c2.5,3.1,5.1,6.1,7.7,9L78.5,235.9z M63.1,217.1c-2.4-3.2-4.8-6.5-7.1-9.9l5.8-4
			c2.2,3.3,4.6,6.5,6.9,9.6L63.1,217.1z M49.4,197c-2.1-3.4-4.2-6.9-6.2-10.4l6.1-3.5c2,3.4,4,6.9,6.1,10.2L49.4,197z M37.3,176
			c-1.9-3.6-3.7-7.2-5.4-10.9l6.3-3c1.7,3.6,3.5,7.1,5.3,10.6L37.3,176z M26.9,154c-1.6-3.7-3.1-7.5-4.6-11.3l6.5-2.5
			c1.4,3.7,2.9,7.4,4.5,11L26.9,154z M18.2,131.3c-1.3-3.9-2.5-7.8-3.6-11.6l6.7-1.9c1.1,3.7,2.2,7.5,3.5,11.3L18.2,131.3z
			 M11.5,108c-0.9-3.9-1.8-7.8-2.7-11.8l6.9-1.4c0.8,3.9,1.7,7.8,2.6,11.6L11.5,108z M6.6,84.3c-0.7-3.9-1.3-7.9-1.9-12l6.9-1
			c0.6,3.9,1.2,7.9,1.9,11.8L6.6,84.3z M3.1,60.3c-0.5-4-0.9-8-1.2-12l7-0.6c0.4,4,0.8,7.9,1.2,11.8L3.1,60.3z M1,36.2
			c-0.3-4-0.5-8-0.6-12.1l7-0.3c0.2,4,0.4,8,0.6,11.9L1,36.2z M0.1,12.1C0,9.5,0,7,0,4.5C0,3,0,1.5,0,0l7,0.1C7,1.5,7,3,7,4.5
			C7,7,7,9.5,7.1,12L0.1,12.1z"/>
	</g>
	<g>
		<polygon fill="#FFFFFF" points="719.4,511.1 735.8,499.3 731.2,527.5 703.1,522.9 		"/>
	</g>
</g>
</svg>
