<?xml version="1.0" encoding="utf-8"?>
<!-- Generator: Adobe Illustrator 17.0.0, SVG Export Plug-In . SVG Version: 6.00 Build 0)  -->
<!DOCTYPE svg PUBLIC "-//W3C//DTD SVG 1.1//EN" "http://www.w3.org/Graphics/SVG/1.1/DTD/svg11.dtd">
<svg version="1.1" id="Layer_1" xmlns="http://www.w3.org/2000/svg" xmlns:xlink="http://www.w3.org/1999/xlink" x="0px" y="0px"
	 width="417px" height="466.5px" viewBox="0 0 417 466.5" enable-background="new 0 0 417 466.5" xml:space="preserve">
<g>
	<g>
		<g>
			<line fill="#FFFFFF" x1="314" y1="186.1" x2="305.3" y2="210.7"/>
			
				<rect x="296.6" y="197.9" transform="matrix(-0.3335 0.9428 -0.9428 -0.3335 599.9616 -27.3318)" fill="#FFFFFF" width="26.1" height="1"/>
		</g>
		<path fill="#C5E4E6" d="M297.3,436.2c0,0-3-11.1-6-32s20-22.2,49-26.6c14.1-2.1,26.2-10.8,27.2-24.3c0.5-7.3-1.4-9.3,3.6-13.9
			c13.3-12,33.2-12,36.8-32.7c7.8-44.7-34.5-94.5-72.7-112.5c-14.8-7-34.1-12.8-55-16.2c-7-1.2-14.1-2-21.3-2.6
			c-50.9-4.1-105.3,7.2-125.1,49.8c-8.3,17.8-10.8,58.3,2,74.9c15,19.4,45,13.9,45,13.9s-0.4,18.2,14.6,22.1
			c14.7,3.9,25.6,4.6,37.1,15.6c11.7,11.3,19.8,25.9,29.3,39c4.9,6.9,15.7,37.8,12.8,47.2"/>
		<g>
			<path fill="#FFFFFF" d="M175.5,325.2"/>
		</g>
		<g>
			<path fill="#FFFFFF" d="M183.1,314.6c4.4-17.8,20.3-32.2,43.8-39.5c28.1-8.8,55.1-3.5,73.3,11.4l-4,13.7
				c-5.2-3.3-17.8-13.2-30.8-12.2l0.2,7.8c14.7-1.1,29.9,10,30,10.2l2.4,1.8l11.9-23.6l-1.4-1.3c-19.2-17-52.6-22-83.1-12.5
				c-25.2,7.9-42.4,23.6-47.2,43.1L183.1,314.6z"/>
		</g>
		<path fill="none" stroke="#E8507E" stroke-width="5" stroke-miterlimit="10" d="M229.3,192.7"/>
		<path fill="none" stroke="#E8507E" stroke-width="5" stroke-miterlimit="10" d="M254.3,190.8"/>
		<g>
			<path fill="#FFFFFF" d="M280.3,438c1.7-12.6-11.5-41.6-16.6-48.7c-2.7-3.7-5.3-7.6-7.8-11.4c-6.5-9.7-13.2-19.7-21.8-28
				c-9.8-9.4-19.4-11.7-30.5-14.3c-2.4-0.6-5-1.2-7.6-1.9c-12.9-3.4-12.7-19-12.7-19.7l0.1-3.1l-3,0.6c-0.3,0.1-28.7,5-42.6-12.9
				c-5.4-7-8.5-19.9-8.4-35.5c0.1-14,0.4-29.2,4.4-37.9c22.7-48.7,93.1-45.7,120.6-44.1l-1.3-8.6c-60.4-3.4-109.3,15.4-126.2,51.6
				c-8.5,18.3-6.7,59.9,6.9,77.6c6.6,8.5,16.9,13.7,29.8,15.2c6.2,0.7,11.6,0.3,14.8,0c0.7,7.4,4.6,18.6,16.3,21.7
				c2.7,0.7,5.3,1.3,7.7,1.9c10.8,2.5,19.4,4.6,28.2,13.1c8.2,7.9,14.7,17.7,21.1,27.1c2.6,3.8,5.2,7.8,7.9,11.6
				c4.5,6.3,13.9,34.4,12.3,45.4L280.3,438z"/>
		</g>
		<g>
			<path fill="#FFFFFF" d="M339.2,384.5l2-0.3c14.2-2.1,27.7-14.7,28.8-30.7c0.2-2.1,0.1-3.8,0.1-5.1c-0.1-3.4-0.1-4.5,2.8-7.1
				c4.4-3.9,9.6-6.6,14.7-9.1c10-5,20.3-10.2,22.9-25c3.7-21.2-7.1-47.2-21.8-69.2c-13.3-19.8-32.3-36.5-52.3-45.9
				c-12.6-5.9-26.6-12.7-43.3-16.2c-3.6-0.8-7.3-1.5-11-2.1l-2.4-0.4l-6,25.2l4.9,1l3.7-18.7c2.8,0.5,5.6,1,8.4,1.6
				c16.3,3.4,31.4,8.3,43.6,14c19.2,9,35.3,23,48.1,42.1c14,20.9,24.5,45.7,21.1,65.6c-2.1,12.3-8.3,18.6-18,23.4
				c-5.4,2.7-11,5.5-15.8,9.9c-4.5,4.1-4.5,7.1-4.4,10.9c0,1.3,0.1,2.8-0.1,4.6c-0.9,12.9-12.3,19.2-23.1,21.7l-6-15.5
				c3.5-2.8,11-10.1,8.8-21.7l-7.9,1.5c2.1,11.4-5.1,17-5.2,17.1l-1.8,1.1L339.2,384.5z"/>
		</g>
		<g>
			<path fill="#FFFFFF" d="M307.8,364.4"/>
			<path fill="#FFFFFF" d="M340.3,377.6c-25.8,4.1-54.7,4.1-51.5,26.9c3,20.9,3.3,33,3.4,33.5l7.4-2.5c0-0.1-3-11.2-5.9-31.7
				c-1.6-10.9,29.9-16.1,47.4-19.7"/>
		</g>
		<g>
			<path fill="#FFFFFF" d="M173.6,244l4.7-5.5l-12.2-10.9c12.8-16.7,44.1-25.6,44.4-25.7l2.8-0.8l-10.1-22.6l-8.4,3.6l11.6,15.9
				c-8.6,2.8-34.6,12.2-45.6,28.4l-1.1,1.6L173.6,244z"/>
		</g>
		<g>
			<path fill="#FFFFFF" d="M207.8,281l4.1-2.9l-15-21.5l-1.9,0.9c-0.8,0.4-19,9-26.3,20.7l6.8,3.8c5.3-8.4,15-16.6,19.8-19
				L207.8,281z"/>
		</g>
		<path fill="none" stroke="#E8507E" stroke-width="5" stroke-miterlimit="10" d="M335.2,194.3"/>
		<g>
			<path fill="#FFFFFF" d="M376.8,282.1l29.5-0.7v-5l-27.5,0.7c-0.8-3.5-2.8-10.9-6.4-19.1c-6.7-15-15.3-24.5-25.7-28.3l-1.2-0.4
				L318.1,248l2.8,4.1l26.4-14.2c21,8.8,27,41.8,27,42.1l0.4,2L376.8,282.1z"/>
		</g>
		<g>
			<path fill="#FFFFFF" d="M270.1,363.9c13.5,0,21.5-9,26.4-15.9c0.5-0.8,3.4-4.9,6-9c1.5-2.3,2.7-4.2,3.5-5.6
				c1.5-2.5,2.7-4.4,0.7-5.9l-0.4-0.2c-0.2-0.1-22.3-11.3-22.3-11.3l-2.4-1.2l-1.1,2.5c0,0.1-4.5,9.9-14.1,13
				c-6.3,2-13.6,0.6-21.5-4.2c-11.9-7.2-20.9-8.8-26.8-4.9c-8.4,5.5-6.6,19.7-6.5,20.3l5-0.7l-2.5,0.3l2.5-0.3
				c-0.4-3.2-0.5-12.4,4.3-15.5c4.1-2.7,11.5-0.9,21.5,5c9.3,5.6,17.9,7.1,25.6,4.6c8.7-2.8,13.8-7.5,16-11.3
				c4.3,2.2,11.4,3.6,15.6,5.8c-2.4,3.9-6.1,13.9-7.4,15.6c-7.1,9.9-14.5,10.8-23.7,10.4l-0.1,8.4
				C269.2,363.9,269.7,363.9,270.1,363.9z"/>
		</g>
		<g>
			<path fill="#FFFFFF" d="M230.6,253l2.5-1.4c0.1-0.1,11.8-6.6,34.8-4.6l0.4-8.1c-18.7-1.7-30.4,5.1-35.2,7.1l-9.1-21.2
				c38-18.3,79.4,9.1,79.9,9.3l1.7,1.1l41.7-34.4l-8.6-5.8l-33.8,33.7c-8.8-5.4-48.1-27-85.3-7.5l-2,1.1L230.6,253z"/>
		</g>
		<g>
			<polygon fill="#FFFFFF" points="351.3,271.5 368.7,255.2 365.8,251.1 347.3,264.3 			"/>
		</g>
		<g>
			<path fill="#FFFFFF" d="M146.1,308.1l14.1-14.8l-1.6-1.7c-0.2-0.3-20-23.7-6.4-43.6l-7.5-4.8c-6.7,9.7-7,21.8-0.8,35
				c3.2,6.9,7.3,12.4,9.5,15l-10.9,11.5L146.1,308.1z"/>
		</g>
		<g>
			<path fill="#FFFFFF" d="M342.9,314.7c11.2,0,23.4-6.2,32.2-13l-6.3-6.3c-9.6,7.5-21.5,17.1-32.6,13.2c-8.4-2.9-8.8-9.4-8.7-19.7
				c0.1-6.8,0.1-13.9-3.7-19.7c-9.2-14-28.8-23.6-36.6-25.3l-0.8,8.8c7.3,1.6,25,6.7,33.2,19.2c3,4.6,2.9,10.8,2.9,16.9
				c-0.1,9.5-0.2,20.2,12,24.5C337.1,314.3,339.9,314.7,342.9,314.7z"/>
		</g>
		<g>
			<polygon fill="#FFFFFF" points="219.3,324 223,320.7 207.7,303.3 200.3,308.1 			"/>
		</g>
	</g>
	<path fill="none" stroke="#FFFFFF" stroke-width="2.5" stroke-miterlimit="10" stroke-dasharray="5" d="M217.6,260.3
		c-10.2-11.2-26.9-32.5-10.5-44.8c15.6-11.8,39.4-5.1,53.9-18.7c12.9-12.1,16.1-35.2,5.1-49.2c-35.3-45.3-111.6-14.6-157.5-16.2
		C36.6,128.8,23.2,65,7.7,7.1"/>
	<polygon fill="#FFFFFF" points="219.8,262.6 223.5,254.7 223.5,267.9 211.3,263.8 	"/>
	<g>
		<path fill="none" stroke="#FFFFFF" stroke-width="2.5" stroke-miterlimit="10" stroke-dasharray="5" d="M542.6,483.8"/>
		<path fill="none" stroke="#FFFFFF" stroke-width="2.5" stroke-miterlimit="10" stroke-dasharray="5" d="M227.2,285.3
			c2.1,7.9,12,21,19.1,26.1c8.7,6.2,17.6,6.5,25.4,2.5c20.8-10.6,55.2,8.1,46.7,31.6c-5.7,15.8-16.3,28.9-30.6,36.7
			c-14.3,7.8-5.3,45.2,6.5,65.6c16.2,28,40.8-3.1,55.5-3.6"/>
		<polygon fill="#FFFFFF" points="227.4,286.6 222.2,293.5 225,280.7 236,287.3 		"/>
	</g>
</g>
</svg>
