<?xml version="1.0" encoding="utf-8"?>
<!-- Generator: Adobe Illustrator 17.0.0, SVG Export Plug-In . SVG Version: 6.00 Build 0)  -->
<!DOCTYPE svg PUBLIC "-//W3C//DTD SVG 1.1//EN" "http://www.w3.org/Graphics/SVG/1.1/DTD/svg11.dtd">
<svg version="1.1" id="Layer_1" xmlns="http://www.w3.org/2000/svg" xmlns:xlink="http://www.w3.org/1999/xlink" x="0px" y="0px"
	 width="403.7px" height="624.2px" viewBox="0 0 403.7 624.2" enable-background="new 0 0 403.7 624.2" xml:space="preserve">
<g>
	<g>
		<g>
			<path fill="#37BEC0" d="M202.2,105.8c-27.1,0-31.6-29.2-31.6-29.2V0l63.3,0v76.7C233.8,76.7,229.3,105.8,202.2,105.8"/>
		</g>
		<g>
			<path fill="#37BEC0" d="M187.2,305.3h-9.7v-24.1c-0.4-13.1,11.7-18.6,21.3-22.9c11.2-5,17.9-8.1,6.8-21.7
				c-13-15.9-4.4-33.4,2.6-47.4c7.1-14.4,10.6-22.8-0.7-27c-36.7-13.7-31.3-26.9-25.7-40.8c3.2-8,6.9-17,3.7-27.9l9.5-1.3
				c3.7,12.3-0.3,22.2-3.8,30.8c-5.6,13.9-9.1,22.2,21,33.4c18.8,7,12.2,20.5,5.2,34.7c-6.7,13.5-14.2,28.8-3.3,42.2
				c15.4,18.8,1.9,24.9-9.9,30.2c-8.9,4-17.3,7.8-17,17.4V305.3z"/>
		</g>
		<g>
			<rect x="197.3" y="99.1" fill="#37BEC0" width="9.7" height="206.2"/>
		</g>
	</g>
	<g>
		<g>
			<g>
				<path fill="#37BEC0" d="M0.8,447c-3.6,2.1,4.7,11.4,18.4,20.6l0,0c13.8,9.3,27.9,15,31.5,12.9l129.7-76.8
					c3.6-2.1-4.7-11.4-18.4-20.6l0,0c-13.8-9.3-27.9-15-31.5-12.9L0.8,447z"/>
			</g>
			<g>
				<path fill="#37BEC0" d="M50.9,452.3c-2.8-4.6-16.3-8.4-30.2-8.7l0,0c-13.9-0.2-23,3.3-20.2,7.8l99.4,164.1
					c2.8,4.6,16.3,8.4,30.2,8.7l0,0c13.9,0.2,23-3.3,20.2-7.8L50.9,452.3z"/>
			</g>
		</g>
		<g>
			<g>
				<path fill="#37BEC0" d="M402.9,447c3.6,2.1-4.7,11.4-18.4,20.6l0,0c-13.8,9.3-27.9,15-31.5,12.9l-129.7-76.8
					c-3.6-2.1,4.7-11.4,18.4-20.6l0,0c13.8-9.3,27.9-15,31.5-12.9L402.9,447z"/>
			</g>
			<g>
				<path fill="#37BEC0" d="M352.8,452.3c2.8-4.6,16.3-8.4,30.2-8.7l0,0c13.9-0.2,23,3.3,20.2,7.8l-99.4,164.1
					c-2.8,4.6-16.3,8.4-30.2,8.7l0,0c-13.9,0.2-23-3.3-20.2-7.8L352.8,452.3z"/>
			</g>
		</g>
		<g>
			<path fill="#37BEC0" d="M279.9,388.1c0,11.9-14.3,21.5-32,21.5h-96.1c-17.7,0-32-9.6-32-21.5v-64.5c0-11.9,14.3-21.5,32-21.5
				h96.1c17.7,0,32,9.6,32,21.5V388.1z"/>
		</g>
	</g>
</g>
</svg>
