<?xml version="1.0" encoding="utf-8"?>
<!-- Generator: Adobe Illustrator 17.0.0, SVG Export Plug-In . SVG Version: 6.00 Build 0)  -->
<!DOCTYPE svg PUBLIC "-//W3C//DTD SVG 1.1//EN" "http://www.w3.org/Graphics/SVG/1.1/DTD/svg11.dtd">
<svg version="1.1" id="Layer_1" xmlns="http://www.w3.org/2000/svg" xmlns:xlink="http://www.w3.org/1999/xlink" x="0px" y="0px"
	 width="474.6px" height="400.9px" viewBox="0 0 474.6 400.9" enable-background="new 0 0 474.6 400.9" xml:space="preserve">
<g>
	<g>
		<g>
			<g>
				<circle fill="#37BEC0" cx="219.3" cy="100.1" r="98.2"/>
			</g>
		</g>
		<g>
			<g>
				<circle fill="#37BEC0" cx="323.8" cy="153.5" r="66.4"/>
				<path fill="#37BEC0" d="M323.8,222.5c-38,0-69-30.9-69-69c0-38,30.9-69,69-69c38,0,69,30.9,69,69
					C392.7,191.5,361.8,222.5,323.8,222.5z M323.8,89.7c-35.2,0-63.8,28.6-63.8,63.8s28.6,63.8,63.8,63.8
					c35.2,0,63.8-28.6,63.8-63.8S359,89.7,323.8,89.7z"/>
			</g>
		</g>
		<g>
			<g>
				<polygon fill="#C5E9EA" points="218.8,104.1 474.6,314.4 305.5,400.9 				"/>
			</g>
		</g>
		<g>
			<g>
				<g>
					<polyline fill="#565555" points="250.8,347.7 187,128.1 209.9,102.4 275.7,334.3 					"/>
				</g>
			</g>
		</g>
		<g>
			<defs>
				<polygon id="SVGID_1_" points="294.9,398.9 0,337.4 209.9,102.4 				"/>
			</defs>
			<clipPath id="SVGID_2_">
				<use xlink:href="#SVGID_1_"  overflow="visible"/>
			</clipPath>
			<g clip-path="url(#SVGID_2_)">
				<g>
					<polygon fill="#565555" points="159.8,148.9 138.9,173.3 196,380.1 224.8,385.5 					"/>
				</g>
				<g>
					<polygon fill="#565555" points="182.7,128.1 164.1,148.9 229.1,385.5 259.2,392.4 					"/>
				</g>
				<g>
					<polygon fill="#565555" points="115.2,198.9 94.2,223.3 132.5,366.9 161.3,372.3 					"/>
				</g>
				<g>
					<polygon fill="#565555" points="87.3,209.1 66.4,233.6 104.6,377.1 133.4,382.6 					"/>
				</g>
				<g>
					<polygon fill="#565555" points="58.1,212.1 37.1,236.5 75.4,380.1 104.1,385.5 					"/>
				</g>
				<g>
					<polygon fill="#565555" points="26.6,212.1 5.7,236.5 43.9,380.1 72.7,385.5 					"/>
				</g>
				<g>
					<polygon fill="#565555" points="-1.2,212.1 -22.2,236.5 11.8,380.1 40.6,385.5 					"/>
				</g>
				<g>
					<polygon fill="#565555" points="136.6,176.7 118.1,197.5 166.1,372.7 192.4,379.2 					"/>
				</g>
			</g>
		</g>
	</g>
	<path fill="#37BEC0" d="M245,301.7c-0.6,0.4,5.8,33.6,30.6,32.6c-6.9,11.3-14.4,18.6-27.5,23.5c-10.6,4-23.1,4.4-33.2-1
		c-11.1-5.8-17.3-17.3-23.3-27.8L245,301.7z"/>
</g>
</svg>
