<?xml version="1.0" encoding="utf-8"?>
<!-- Generator: Adobe Illustrator 17.0.0, SVG Export Plug-In . SVG Version: 6.00 Build 0)  -->
<!DOCTYPE svg PUBLIC "-//W3C//DTD SVG 1.1//EN" "http://www.w3.org/Graphics/SVG/1.1/DTD/svg11.dtd">
<svg version="1.1" id="Layer_1" xmlns="http://www.w3.org/2000/svg" xmlns:xlink="http://www.w3.org/1999/xlink" x="0px" y="0px"
	 width="391px" height="322.1px" viewBox="0 0 391 322.1" enable-background="new 0 0 391 322.1" xml:space="preserve">
<g>
	<g>
		<path fill="#C5E4E6" d="M18.5,255.1c1,3.2,5.3,21.9,5.3,21.9c-6.7-1.1-13-3.5-20.1-4.5L18.5,255.1z"/>
	</g>
	<g>
		<g>
			<g>
				<path fill="#40B6B8" d="M254.8,73.3c0,43.3-35.1,78.5-78.5,78.5s-78.5-35.1-78.5-78.5S138.2,0,181.5,0S254.8,29.9,254.8,73.3z"
					/>
			</g>
		</g>
		<g>
			<path fill="#40B6B8" d="M304.9,116c0,29.3-20.7,50-50,50s-50-20.8-50-50s23.7-53,53-53S304.9,86.7,304.9,116z"/>
			<path fill="#FFFFFF" d="M256.8,167.5c-14.6,0-27.7-5.1-37.1-14.5c-9.3-9.3-15.9-24-15.9-38.6c0-30.1,25.9-51.5,56-51.5
				c28.6,0,48.5,20.9,48.5,53c0,14.6-5.1,27.7-14.5,37.1C284.6,162.4,271.4,167.5,256.8,167.5z M258.9,64.4
				c-28.4,0-51.5,23.1-51.5,51.5c0,28.6,20,48.5,48.5,48.5c28.6,0,48.5-20,48.5-48.5C304.4,85.6,285.6,64.4,258.9,64.4z"/>
		</g>
		<g>
			<path fill="#C5E4E6" d="M184.2,89.2c7.3,25.2,56.4,205.9,66.4,230.9c0,0,118.1-54.2,137.1-62.2L184.2,89.2z"/>
		</g>
		<g>
			<path fill="#C5E4E6" d="M51.9,284.1c-6.5-1.3-15.9-4.3-21.9-5.2c-2.2-7-6.1-23.7-7.3-28.3c4-5.5,9.7-12,14.3-18.3
				C38.5,238.6,50,277,51.9,284.1z"/>
		</g>
		<g>
			<path fill="#C5E4E6" d="M78.6,290.6c-6.5-1.3-15.9-4.3-21.9-5.2c-3.3-9-13.7-47.9-16.4-57.3c5.8-5.9,10.9-10.3,16.4-16.2
				C58.2,220,76.6,286.6,78.6,290.6z"/>
		</g>
		<g>
			<path fill="#C5E4E6" d="M103.5,297.4c-6.5-1.3-13.7-4.3-19.7-5.2c-3.2-8.7-21.6-74.5-24.4-84.1c5.8-5.9,10.9-10.3,16.4-16.2
				C77.3,200,101.5,293.4,103.5,297.4z"/>
		</g>
		<g>
			<path fill="#C5E4E6" d="M128.8,300c-5.8,0.1-14-1.7-20-2.6c-3.2-8.7-27.5-101-30.3-110.7c5.8-5.9,9.9-9.3,15.4-15.2
				C96.2,180.6,126.8,296,128.8,300z"/>
		</g>
		<g>
			<path fill="#C5E4E6" d="M153.6,305.3c-6.5-1.3-13.7-3.3-19.7-4.2c-3.2-8.7-34.5-123.7-37.3-133.3c5.8-5.9,10.9-10.3,16.4-16.2
				C114.4,159.6,151.6,301.3,153.6,305.3z"/>
		</g>
		<g>
			<path fill="#C5E4E6" d="M180.9,310.5c-6.5-1.3-17.1-2-23.1-2.9c-3.2-8.7-40.4-151.7-43.2-161.3c5.8-5.9,10.9-10.3,16.4-16.2
				C132.4,138.2,178.9,306.5,180.9,310.5z"/>
		</g>
		<g>
			<path fill="#C5E4E6" d="M208.3,317.4c-6.5-1.3-16.3-3.4-22.3-4.3c-3.2-8.7-49.3-176-52.1-185.6c5.8-5.9,10.9-10.3,16.4-16.2
				C151.7,119.4,206.3,313.4,208.3,317.4z"/>
		</g>
		<g>
			<path fill="#C5E4E6" d="M221.4,271c-2.1,6-11.1,14-17.1,13.1c-3.2-8.7-49.4-166.8-52.1-176.5c5.8-5.9,13.3-12.3,18.8-18.2
				C172.5,97.5,219.4,267,221.4,271z"/>
		</g>
		<g>
			<path fill="#40B6B8" d="M220.7,270.7c-4.5,10.1-13.8,19.3-27.5,19.3c-18.7,0-30.4-12.1-42.8-23.8c13.1-4.7,30.7-7.7,40.1-18.8
				C193.1,254.6,211.2,282.9,220.7,270.7z"/>
			<g>
				<path fill="#40B6B8" d="M220,270.3c-6.5,13.9-19.2,20.9-34.5,18.2c-14.1-2.5-24.7-13.5-34.7-22.9c-0.1,0.4-0.2,0.8-0.3,1.3
					c13.9-4.9,30.2-7.4,40.4-19c-0.4-0.1-0.8-0.2-1.3-0.3c3.3,8.3,20.6,36.5,31.5,23.6c0.6-0.7-0.4-1.8-1.1-1.1
					c-9.6,11.4-26-15.3-29-23c-0.2-0.5-0.8-0.8-1.3-0.3c-10.1,11.4-26.1,13.8-39.7,18.6c-0.5,0.2-0.8,0.8-0.3,1.3
					c11.2,10.6,22.5,21.6,38.4,23.7c14.7,2,27-6.3,33.2-19.4C221.7,270.2,220.5,269.4,220,270.3z"/>
			</g>
		</g>
	</g>
</g>
</svg>
