<?xml version="1.0" encoding="utf-8"?>
<!-- Generator: Adobe Illustrator 17.0.0, SVG Export Plug-In . SVG Version: 6.00 Build 0)  -->
<!DOCTYPE svg PUBLIC "-//W3C//DTD SVG 1.1//EN" "http://www.w3.org/Graphics/SVG/1.1/DTD/svg11.dtd">
<svg version="1.1" id="Layer_1" xmlns="http://www.w3.org/2000/svg" xmlns:xlink="http://www.w3.org/1999/xlink" x="0px" y="0px"
	 width="1012.8px" height="342px" viewBox="0 0 1012.8 342" enable-background="new 0 0 1012.8 342" xml:space="preserve">
<g>
	<g>
		<path fill="#C5E9EA" d="M23.1,342c0,0-0.2-8.4,7.1-12.8c7.3-4.3,15.6-8.7,21.9-10.9s0.9-8.4-5.6-15.7s-18.8-44.9,16.9-51.9
			c0,0,15.1,5.8,20.6,4.1c5.5-1.7,7-4.3,33-5.1s485.1-5.8,522.9-6.5c37.9-0.7,235-6.2,276.1-3c41.1,3.1,82.2,9.4,85.6,20.4
			s8.5,73.2,8.5,73.2l-140.4,2.7c0,0,3-10.3-6.5-11.7c-9.5-1.4-41.1-5.5-48.2-2.2s-7.7,11.2-7.7,11.2l-9.5-0.6l-595.5,5.3
			c0,0,9.3-8.9-8.1-8.5s-43.4-1.5-47.3,2.5c-3.9,4-4.6,8.8-4.6,8.8L23.1,342z"/>
	</g>
	<g>
		<g>
			<path fill="#FFFFFF" d="M4.5,196.4c0,0,0.2,8.6,7.8,12.8c7.6,4.2,16.3,8.3,22.8,10.3c6.5,2,1.2,8.6-5.1,16.3
				c-6.3,7.7-17.4,46.6,19.3,52.4c0,0,15.2-6.5,20.9-5c5.7,1.5,7.3,4.2,34,3.9s496.4-13.4,535.2-14.2c38.7-0.8,240.6-3.1,282.5-7.9
				c41.9-4.9,83.7-12.9,86.7-24.3c3-11.4,5.8-75.2,5.8-75.2l-143.7,2.8c0,0,3.4,10.4-6.2,12.2c-9.7,1.8-41.9,7.3-49.2,4.2
				c-7.3-3.1-8.3-11.1-8.3-11.1l-9.7,1L188,192.9c0,0,9.9,8.7-7.9,9s-44.4,3.3-48.5-0.7c-4.1-4-5-8.8-5-8.8L4.5,196.4z"/>
		</g>
		<g>
			<path fill="#FFFFFF" d="M190,199.4l-17.2,0.3l-0.3-17.9l54.9-1.1l-0.2-8.7l21.8-0.4c0,0-2.6-10.6,3.8-10.7
				c6.5-0.1,543.9-20.3,544-14.6c0.1,5.7,0.6,28.3,0.6,28.3L190,199.4z"/>
			<path fill="#FFFFFF" d="M190,200.2l-18,0.4l-0.4-19.5l54.9-1.1l-0.2-8.7l21.6-0.4c-0.4-2-0.9-6.5,1-9c0.9-1.2,2.2-1.8,3.8-1.8
				c0.8,0,9.4-0.3,23.7-0.8c80.9-2.9,327.3-11.8,450.3-14.2c70.7-1.4,70.8-0.1,70.8,1.2l0.6,29l-0.8,0L190,200.2z M173.6,199
				l16.4-0.3l606.6-24.9l-0.5-27c-2.2-0.5-14.6-1.1-69.2-0.1c-123,2.4-369.3,11.3-450.3,14.2c-14.3,0.5-23,0.8-23.8,0.8
				c-1.1,0-1.9,0.4-2.5,1.2c-1.7,2.2-1,6.9-0.5,8.6l0.2,1l-22,0.4l0.2,8.7l-54.9,1.1L173.6,199z"/>
		</g>
		<g>
			<polygon fill="#FFFFFF" points="304.3,109.8 313.3,158.7 342.4,157.7 330,104.5 			"/>
			<path fill="#FFFFFF" d="M312.7,159.6l-9.3-50.4l27.3-5.7l12.7,54.9L312.7,159.6z M305.2,110.5l8.8,47.4l27.4-1l-11.9-51.5
				L305.2,110.5z"/>
		</g>
		<g>
			<polygon fill="#FFFFFF" points="299,87.3 304.3,109.8 330,104.5 325.5,81.9 			"/>
		</g>
		<g>
			<polygon fill="#FFFFFF" points="437.8,107.2 446.8,156.1 475.9,155.1 463.5,101.9 			"/>
			<path fill="#FFFFFF" d="M446.2,157l-9.3-50.4l27.3-5.7l12.7,54.9L446.2,157z M438.7,107.9l8.8,47.4l27.4-1l-11.9-51.5
				L438.7,107.9z"/>
		</g>
		<g>
			<polygon fill="#FFFFFF" points="432.5,84.7 437.8,107.2 463.5,101.9 459,79.3 			"/>
		</g>
		<g>
			<polygon fill="#FFFFFF" points="706.9,102 715.9,150.9 744.9,149.9 732.6,96.6 			"/>
			<path fill="#FFFFFF" d="M715.2,151.7l-9.3-50.4l27.3-5.7l12.7,54.9L715.2,151.7z M707.8,102.6l8.8,47.4l27.4-1L732,97.6
				L707.8,102.6z"/>
		</g>
		<g>
			<polygon fill="#FFFFFF" points="701.6,79.5 706.9,102 732.6,96.6 728.1,74.1 			"/>
		</g>
		<g>
			<polygon fill="#FFFFFF" points="572.3,104.6 581.4,153.5 610.4,152.5 598.1,99.3 			"/>
			<path fill="#FFFFFF" d="M580.7,154.3l-9.3-50.4l27.3-5.7l12.7,54.9L580.7,154.3z M573.3,105.2l8.8,47.4l27.4-1l-11.9-51.5
				L573.3,105.2z"/>
		</g>
		<g>
			<polygon fill="#FFFFFF" points="567,82.1 572.3,104.6 598.1,99.3 593.6,76.7 			"/>
		</g>
		<g>
			<line fill="#FFFFFF" x1="844.5" y1="0.2" x2="879" y2="168.1"/>
			
				<rect x="776.1" y="83" transform="matrix(0.2013 0.9795 -0.9795 0.2013 770.7292 -776.9015)" fill="#FFFFFF" width="171.4" height="2.4"/>
		</g>
		<g>
			<line fill="#FFFFFF" x1="58.3" y1="194.7" x2="167.1" y2="36.1"/>
			
				<rect x="111.9" y="19.2" transform="matrix(0.8244 0.5659 -0.5659 0.8244 85.0735 -43.5175)" fill="#FFFFFF" width="1.6" height="192.3"/>
		</g>
		<g>
			<line fill="#FFFFFF" x1="305.3" y1="158.9" x2="167" y2="31.7"/>
			
				<rect x="142.2" y="94.5" transform="matrix(0.7361 0.6769 -0.6769 0.7361 126.8395 -134.6725)" fill="#FFFFFF" width="187.8" height="1.6"/>
		</g>
		<g>
			<polygon fill="#FFFFFF" points="173.3,181.9 171.6,181.8 172.4,64.1 297.7,158.4 296.7,159.7 174,67.3 			"/>
		</g>
		<g>
			<line fill="#FFFFFF" x1="196.9" y1="181.4" x2="162.4" y2="13.5"/>
			
				<rect x="94" y="96.2" transform="matrix(0.2013 0.9795 -0.9795 0.2013 238.9686 -98.1751)" fill="#FFFFFF" width="171.4" height="2.4"/>
		</g>
		<g>
			<path fill="#FFFFFF" d="M812.2,182.4l-1.6-0.4L847.2,14l1,0.9l163.5,146.3l-1.1,1.2l-3.2-2.9l-152.2-108L812.2,182.4z
				 M848.2,17.1l-32.6,150l38.8-118.1l142.3,101L848.2,17.1z"/>
		</g>
		<g>
			<path fill="#FFFFFF" d="M141.4,14.7c0,0,11.3,3.4,21-0.6l3.4,15.8c0,0-23.5,5.7-27.1,2.6C135.2,29.4,141.4,14.7,141.4,14.7z"/>
		</g>
		<g>
			<path fill="#FFFFFF" d="M831.9,1.4c0,0,6.3,1.9,11.6-0.3l1.9,8.8c0,0-13,3.2-15,1.4C828.4,9.6,831.9,1.4,831.9,1.4z"/>
		</g>
	</g>
</g>
</svg>
