<?xml version="1.0" encoding="utf-8"?>
<!-- Generator: Adobe Illustrator 16.2.1, SVG Export Plug-In . SVG Version: 6.00 Build 0)  -->
<!DOCTYPE svg PUBLIC "-//W3C//DTD SVG 1.1//EN" "http://www.w3.org/Graphics/SVG/1.1/DTD/svg11.dtd">
<svg version="1.1" id="Layer_1" xmlns="http://www.w3.org/2000/svg" xmlns:xlink="http://www.w3.org/1999/xlink" x="0px" y="0px"
	 width="460px" height="124px" viewBox="0 0 460 124" enable-background="new 0 0 460 124" xml:space="preserve">
<g>
	<path fill="none" stroke="#FFFFFF" stroke-width="2" stroke-linecap="round" stroke-linejoin="round" stroke-miterlimit="10" d="
		M162.298,2.714h135.7c1.281,0,2.322,1.039,2.322,2.322v94.028c0,1.285-1.041,2.322-2.322,2.322h-86.265h-49.436
		c-1.278,0-2.32-1.037-2.32-2.322V5.036C159.978,3.753,161.02,2.714,162.298,2.714z"/>
	<path fill="none" stroke="#FFFFFF" stroke-width="2" stroke-linecap="round" stroke-linejoin="round" stroke-miterlimit="10" d="
		M255.804,117.612h4.388V122H200.11v-4.388h4.387c6.205-6.201,6.533-11.917,7.236-16.226l36.85,0.074
		C249.3,105.762,249.639,111.448,255.804,117.612z"/>
	<path fill="none" stroke="#FFFFFF" stroke-width="2" stroke-linecap="round" stroke-linejoin="round" stroke-miterlimit="10" d="
		M162.298,101.387h135.7c1.281,0,2.322-1.037,2.322-2.322V5.036c0-1.283-1.041-2.322-2.322-2.322h-135.7
		c-1.278,0-2.32,1.039-2.32,2.322v94.028C159.978,100.35,161.02,101.387,162.298,101.387z"/>
	
		<rect x="164.365" y="7.099" fill="none" stroke="#FFFFFF" stroke-width="2" stroke-linecap="round" stroke-linejoin="round" stroke-miterlimit="10" width="131.567" height="72.359"/>
	
		<rect x="200.11" y="117.612" fill="none" stroke="#FFFFFF" stroke-width="2" stroke-linecap="round" stroke-linejoin="round" stroke-miterlimit="10" width="60.081" height="4.388"/>
	<path fill="none" stroke="#FFFFFF" stroke-width="2" stroke-linecap="round" stroke-linejoin="round" stroke-miterlimit="10" d="
		M225.767,90.424c0,2.423,1.964,4.383,4.386,4.383c2.424,0,4.386-1.96,4.386-4.383c0-2.424-1.962-4.389-4.386-4.389
		C227.73,86.035,225.767,88,225.767,90.424z"/>
	<path fill="none" stroke="#FFFFFF" stroke-width="2" stroke-linecap="round" stroke-linejoin="round" stroke-miterlimit="10" d="
		M248.583,101.461c0.717,4.301,1.056,9.987,7.221,16.151"/>
	<path fill="none" stroke="#FFFFFF" stroke-width="2" stroke-linecap="round" stroke-linejoin="round" stroke-miterlimit="10" d="
		M211.733,101.387c-0.703,4.309-1.031,10.024-7.236,16.226"/>
</g>
<g>
	<path fill="none" stroke="#FFFFFF" stroke-width="2" stroke-linecap="round" stroke-linejoin="round" stroke-miterlimit="10" d="
		M441.591,82.424V14.37c0-1.379-1.113-2.49-2.489-2.49h-89.077c-1.373,0-2.489,1.11-2.489,2.49v68.054l-16.459,25.342v3.281
		c0,0.986,1.116,1.787,2.487,1.787h121.999c1.374,0,2.487-0.801,2.487-1.787v-3.281L441.591,82.424z"/>
	<path fill="none" stroke="#FFFFFF" stroke-width="2" stroke-linecap="round" stroke-linejoin="round" stroke-miterlimit="10" d="
		M441.591,14.37c0-1.379-1.113-2.49-2.489-2.49h-89.077c-1.373,0-2.489,1.11-2.489,2.49v68.054h94.056V14.37z"/>
	
		<rect x="352.241" y="16.582" fill="none" stroke="#FFFFFF" stroke-width="2" stroke-linecap="round" stroke-linejoin="round" stroke-miterlimit="10" width="84.648" height="61.138"/>
	
		<polygon fill="none" stroke="#FFFFFF" stroke-width="2" stroke-linecap="round" stroke-linejoin="round" stroke-miterlimit="10" points="
		331.076,107.766 458.05,107.766 441.591,82.424 347.535,82.424 	"/>
	<path fill="none" stroke="#FFFFFF" stroke-width="2" stroke-linecap="round" stroke-linejoin="round" stroke-miterlimit="10" d="
		M333.563,112.834h121.999c1.374,0,2.487-0.801,2.487-1.787v-3.281H331.076v3.281C331.076,112.033,332.192,112.834,333.563,112.834z
		"/>
	
		<polygon fill="none" stroke="#FFFFFF" stroke-width="2" stroke-linecap="round" stroke-linejoin="round" stroke-miterlimit="10" points="
		342.83,97.629 446.296,97.629 439.242,85.803 349.887,85.803 	"/>
	
		<polygon fill="none" stroke="#FFFFFF" stroke-width="2" stroke-linecap="round" stroke-linejoin="round" stroke-miterlimit="10" points="
		378.104,104.389 411.024,104.389 408.673,101.007 380.458,101.007 	"/>
	
		<polyline fill="none" stroke="#FFFFFF" stroke-width="2" stroke-linecap="round" stroke-linejoin="round" stroke-miterlimit="10" points="
		401.62,107.766 399.405,109.102 390.001,109.102 387.51,107.766 	"/>
</g>
<g>
	<path fill="none" stroke="#FFFFFF" stroke-width="2" stroke-linecap="round" stroke-linejoin="round" stroke-miterlimit="10" d="
		M112.762,82.424V14.37c0-1.379-1.114-2.49-2.49-2.49H21.195c-1.372,0-2.489,1.11-2.489,2.49v68.054L2.248,107.766v3.281
		c0,0.986,1.116,1.787,2.487,1.787h122c1.374,0,2.487-0.801,2.487-1.787v-3.281L112.762,82.424z"/>
	<path fill="none" stroke="#FFFFFF" stroke-width="2" stroke-linecap="round" stroke-linejoin="round" stroke-miterlimit="10" d="
		M112.762,14.37c0-1.379-1.114-2.49-2.49-2.49H21.195c-1.372,0-2.489,1.11-2.489,2.49v68.054h94.056V14.37z"/>
	
		<rect x="23.413" y="16.582" fill="none" stroke="#FFFFFF" stroke-width="2" stroke-linecap="round" stroke-linejoin="round" stroke-miterlimit="10" width="84.648" height="61.138"/>
	
		<polygon fill="none" stroke="#FFFFFF" stroke-width="2" stroke-linecap="round" stroke-linejoin="round" stroke-miterlimit="10" points="
		2.248,107.766 129.221,107.766 112.762,82.424 18.706,82.424 	"/>
	<path fill="none" stroke="#FFFFFF" stroke-width="2" stroke-linecap="round" stroke-linejoin="round" stroke-miterlimit="10" d="
		M4.735,112.834h122c1.374,0,2.487-0.801,2.487-1.787v-3.281H2.248v3.281C2.248,112.033,3.364,112.834,4.735,112.834z"/>
	
		<polygon fill="none" stroke="#FFFFFF" stroke-width="2" stroke-linecap="round" stroke-linejoin="round" stroke-miterlimit="10" points="
		14.002,97.629 117.467,97.629 110.413,85.803 21.058,85.803 	"/>
	
		<polygon fill="none" stroke="#FFFFFF" stroke-width="2" stroke-linecap="round" stroke-linejoin="round" stroke-miterlimit="10" points="
		49.275,104.389 82.196,104.389 79.845,101.007 51.629,101.007 	"/>
	
		<polyline fill="none" stroke="#FFFFFF" stroke-width="2" stroke-linecap="round" stroke-linejoin="round" stroke-miterlimit="10" points="
		72.792,107.766 70.577,109.102 61.173,109.102 58.681,107.766 	"/>
</g>
</svg>
