<?xml version="1.0" encoding="utf-8"?>
<!-- Generator: Adobe Illustrator 16.2.1, SVG Export Plug-In . SVG Version: 6.00 Build 0)  -->
<!DOCTYPE svg PUBLIC "-//W3C//DTD SVG 1.1//EN" "http://www.w3.org/Graphics/SVG/1.1/DTD/svg11.dtd">
<svg version="1.1" id="Layer_1" xmlns="http://www.w3.org/2000/svg" xmlns:xlink="http://www.w3.org/1999/xlink" x="0px" y="0px"
	 width="480px" height="100px" viewBox="0 0 480 100" enable-background="new 0 0 480 100" xml:space="preserve">
<path fill="#FFFFFF" d="M136,0H4C1.8,0,0,1.8,0,4v92c0,2.2,1.8,4,4,4h132c2.2,0,4-1.8,4-4V4C140,1.8,138.2,0,136,0z M122,4.5
	c1.657,0,3,1.343,3,3c0,1.656-1.343,3-3,3s-3-1.344-3-3C119,5.843,120.343,4.5,122,4.5z M113,4.5c1.657,0,3,1.343,3,3
	c0,1.656-1.343,3-3,3s-3-1.344-3-3C110,5.843,111.343,4.5,113,4.5z M134,93c0,1.1-0.9,2-2,2H8c-1.1,0-2-0.9-2-2V17c0-1.1,0.9-2,2-2
	h124c1.1,0,2,0.9,2,2V93z M131,10.5c-1.657,0-3-1.344-3-3c0-1.657,1.343-3,3-3s3,1.343,3,3C134,9.156,132.657,10.5,131,10.5z"/>
<path fill="#FFFFFF" d="M306,0H174c-2.2,0-4,1.8-4,4v92c0,2.2,1.8,4,4,4h132c2.2,0,4-1.8,4-4V4C310,1.8,308.2,0,306,0z M292,4.5
	c1.656,0,3,1.343,3,3c0,1.656-1.344,3-3,3s-3-1.344-3-3C289,5.843,290.344,4.5,292,4.5z M283,4.5c1.656,0,3,1.343,3,3
	c0,1.656-1.344,3-3,3s-3-1.344-3-3C280,5.843,281.344,4.5,283,4.5z M304,93c0,1.1-0.9,2-2,2H178c-1.1,0-2-0.9-2-2V17
	c0-1.1,0.9-2,2-2h124c1.1,0,2,0.9,2,2V93z M301,10.5c-1.656,0-3-1.344-3-3c0-1.657,1.344-3,3-3s3,1.343,3,3
	C304,9.156,302.656,10.5,301,10.5z"/>
<path fill="#FFFFFF" d="M476,0H344c-2.2,0-4,1.8-4,4v92c0,2.2,1.8,4,4,4h132c2.2,0,4-1.8,4-4V4C480,1.8,478.2,0,476,0z M462,4.5
	c1.656,0,3,1.343,3,3c0,1.656-1.344,3-3,3s-3-1.344-3-3C459,5.843,460.344,4.5,462,4.5z M453,4.5c1.656,0,3,1.343,3,3
	c0,1.656-1.344,3-3,3s-3-1.344-3-3C450,5.843,451.344,4.5,453,4.5z M474,93c0,1.1-0.9,2-2,2H348c-1.1,0-2-0.9-2-2V17
	c0-1.1,0.9-2,2-2h124c1.1,0,2,0.9,2,2V93z M471,10.5c-1.656,0-3-1.344-3-3c0-1.657,1.344-3,3-3s3,1.343,3,3
	C474,9.156,472.656,10.5,471,10.5z"/>
<g>
	<path fill="#FFFFFF" d="M34.171,52.067l22.917-10.14v6.593l-15.005,5.957v0.091l15.005,5.911v6.593l-22.917-10.14V52.067z"/>
	<path fill="#FFFFFF" d="M72.728,36.494h6.548L67.635,72.506h-6.547L72.728,36.494z"/>
	<path fill="#FFFFFF" d="M82.912,60.479l15.005-5.911v-0.091l-15.005-5.957v-6.593l22.917,10.14v4.865l-22.917,10.14V60.479z"/>
</g>
<g>
	<path fill="#FFFFFF" d="M218.723,49.994c4.229,0,5.456,3.637,7.82,3.637c1.455,0,2.501-1.136,2.501-3.455h6.048
		c0,6.093-2.638,9.23-7.866,9.23c-4.229,0-5.457-3.638-7.866-3.638c-1.41,0-2.456,1.137-2.456,3.456h-6.093
		C210.811,53.131,213.448,49.994,218.723,49.994z"/>
	<path fill="#FFFFFF" d="M243.047,60.139c0,0,3.684,3.364,7.775,3.364c1.637,0,3.41-0.636,3.41-2.592
		c0-3.638-14.777-3.956-14.777-13.731c0-5.093,3.637-8.73,8.685-9.685V33.22h4.956v4.138c5.547,0.637,8.321,3.547,8.321,3.547
		l-3.365,6.502c0,0-3.273-2.864-7.185-2.864c-1.637,0-3.455,0.728-3.455,2.546c0,3.864,14.777,3.592,14.777,13.641
		c0,4.819-3.273,9.003-9.094,9.913v4.137h-4.956v-4.137c-6.002-0.865-9.276-4.457-9.276-4.457L243.047,60.139z"/>
</g>
<g>
	<path fill="#FFFFFF" d="M383.014,62.205c0-4.365-3.865-4.365-3.865-4.365v-6.82c0,0,3.865,0,3.865-4.501v-4.001
		c0-6.502,5.865-7.366,9.049-7.366c1.137,0,1.955,0.091,1.955,0.091v5.638c0,0-0.501-0.091-1.137-0.091
		c-1.319,0-3.32,0.364-3.32,2.455v5.32c0,4.639-3.818,5.775-3.818,5.775v0.09c0,0,3.818,0.955,3.818,5.73v5.773
		c0,2.092,2.001,2.456,3.32,2.456c0.636,0,1.137-0.091,1.137-0.091v5.638c0,0-0.818,0.091-1.955,0.091
		c-3.184,0-9.049-0.863-9.049-7.365V62.205z"/>
	<path fill="#FFFFFF" d="M427.092,68.39c1.318,0,3.319-0.364,3.319-2.456V60.16c0-4.775,3.819-5.73,3.819-5.73v-0.09
		c0,0-3.819-1.137-3.819-5.775v-5.32c0-2.091-2.001-2.455-3.319-2.455c-0.637,0-1.137,0.091-1.137,0.091v-5.638
		c0,0,0.818-0.091,1.955-0.091c3.183,0,9.049,0.864,9.049,7.366v4.001c0,4.501,3.864,4.501,3.864,4.501v6.82
		c0,0-3.864,0-3.864,4.365v4.457c0,6.502-5.866,7.365-9.049,7.365c-1.137,0-1.955-0.091-1.955-0.091v-5.638
		C425.955,68.299,426.455,68.39,427.092,68.39z"/>
	<circle fill="#FFFFFF" cx="398.387" cy="55.59" r="3.729"/>
	<circle fill="#FFFFFF" cx="409.986" cy="55.59" r="3.728"/>
	<circle fill="#FFFFFF" cx="421.584" cy="55.59" r="3.728"/>
</g>
</svg>
