<?xml version="1.0" encoding="utf-8"?>
<!-- Generator: Adobe Illustrator 16.2.1, SVG Export Plug-In . SVG Version: 6.00 Build 0)  -->
<!DOCTYPE svg PUBLIC "-//W3C//DTD SVG 1.1//EN" "http://www.w3.org/Graphics/SVG/1.1/DTD/svg11.dtd">
<svg version="1.1" id="Layer_1" xmlns="http://www.w3.org/2000/svg" xmlns:xlink="http://www.w3.org/1999/xlink" x="0px" y="0px"
	 width="500px" height="500px" viewBox="0 0 500 500" enable-background="new 0 0 500 500" xml:space="preserve">
<g>
	<path fill="#4A5A70" d="M210.162,122.433c-3.072,0-5.157,2.567-5.542,3.567H215v0.097C215,125.201,213.81,122.433,210.162,122.433z
		"/>
	<path fill="#4A5A70" d="M351,126.097c0-0.896-1.127-3.664-4.775-3.664c-3.072,0-5.095,2.567-5.479,3.567H351V126.097z"/>
	<path fill="#4A5A70" d="M219.302,429.533c-3.072,0-5.018,2.467-5.402,3.467H224v0.297C224,432.401,222.95,429.533,219.302,429.533z
		"/>
	<path fill="#4A5A70" d="M191,202.897c0-0.896-1.158-3.564-4.806-3.564c-3.072,0-5.125,2.667-5.51,3.667H191V202.897z"/>
	<path fill="#4A5A70" d="M48.782,132.304l1.28-5.824c-1.152-1.664-2.944-2.496-5.44-2.496c-3.136,0-5.824,1.92-5.824,6.016
		c0,2.56,2.24,4.479,5.376,4.479C45.967,134.48,47.566,133.648,48.782,132.304z"/>
	<path fill="#4A5A70" d="M139.406,130.96c0,3.072,2.368,5.12,5.12,5.12c1.792,0,3.328-0.768,4.672-2.112l1.792-7.872
		c-1.216-1.344-3.072-2.112-5.12-2.112C142.222,123.985,139.406,126.993,139.406,130.96z"/>
	<path fill="#4A5A70" d="M115,126.097c0-0.896-1.301-3.664-4.949-3.664c-3.072,0-5.269,2.567-5.653,3.567H115V126.097z"/>
	<path fill="#4A5A70" d="M116.43,431.186c-1.792,0-3.328,0.768-4.672,2.111l-1.792,7.871c1.216,1.345,3.072,2.112,5.12,2.112
		c3.648,0,6.464-3.008,6.464-6.976C121.549,433.232,119.181,431.186,116.43,431.186z"/>
	<path fill="#4A5A70" d="M299.529,59.28c3.84,0,6.271-3.456,6.271-7.295c0-3.072-1.983-4.8-5.184-4.8
		c-3.84,0-6.271,3.456-6.271,7.295C294.346,57.552,296.33,59.28,299.529,59.28z"/>
	<path fill="#4A5A70" d="M290.57,212.88c3.84,0,6.271-3.456,6.271-7.295c0-3.072-1.983-4.8-5.184-4.8
		c-3.84,0-6.271,3.456-6.271,7.295C285.387,211.152,287.371,212.88,290.57,212.88z"/>
	<path fill="#4A5A70" d="M388.232,361.36c0,3.072,2.367,5.12,5.119,5.12c1.792,0,3.328-0.768,4.672-2.112l1.792-7.871
		c-1.216-1.344-3.072-2.112-5.12-2.112C391.048,354.385,388.232,357.393,388.232,361.36z"/>
	<path fill="#4A5A70" d="M379.722,202.897c-1.216-1.344-3.072-2.112-5.12-2.112c-3.647,0-6.463,3.008-6.463,6.976
		c0,3.072,2.367,5.12,5.119,5.12c1.792,0,3.328-0.768,4.672-2.112L379.722,202.897z"/>
	<path fill="#4A5A70" d="M0,0v500h500V0H0z M366.089,38h5.119l1.856-9h11.519l-1.855,9h6.271l-2.24,10h-6.271l-1.663,7.432
		c-0.128,0.576-0.192,1.156-0.192,1.412c0,1.472,0.84,2.466,2.824,2.466c0.576,0,1.544-0.222,1.544-0.35v9.216
		c-1,0.832-3.336,1.28-5.448,1.28c-6.655,0-11.362-2.432-11.362-7.808c0-0.448,0.077-1.417,0.27-2.312L368.969,48h-5.12L366.089,38z
		 M393.672,145h-12.287l-3.008-8.191L371.658,145h-12.863l13.567-15.416L366.282,115h12.287l2.56,7.231l5.76-7.231h12.927
		l-12.862,14.584L393.672,145z M361.096,128.097c0,2.112-0.384,3.903-0.703,5.903H340v-0.352c0,0.448,1.685,3.84,6.164,3.84
		c2.432,0,5.227-0.576,6.635-1.536l3.477,7.487c-3.136,1.984-7.381,2.816-11.093,2.816c-9.983,0-16.905-4.992-16.905-14.079
		c0-9.855,7.546-18.263,18.36-18.263C354.317,113.914,361.096,118.689,361.096,128.097z M357.194,180l-9.407,42h-11.52l9.407-42
		H357.194z M321.281,136.08c0.576,0,1.719-0.192,1.719-0.32v9.216c-1,0.832-3.511,1.28-5.623,1.28c-6.655,0-11.45-2.432-11.45-7.808
		c0-0.448,0.034-1.316,0.226-2.212L308.619,125h-5.12l2.24-10h5.119l1.856-9h11.519l-1.855,9h6.271l-2.24,10h-6.271l-1.663,7.332
		c-0.128,0.576-0.133,1.106-0.133,1.362C318.342,135.166,319.297,136.08,321.281,136.08z M221.643,365.2
		c0,6.464-5.44,11.455-14.591,11.455c-5.695,0-11.967-1.983-16.062-5.695l5.887-7.231c1.984,1.92,6.976,4.735,11.264,4.735
		c1.152,0,1.983-0.512,1.983-1.151c0-3.52-15.039-1.792-15.039-11.775c0-5.695,4.799-11.327,13.759-11.327
		c5.184,0,10.624,1.728,14.399,4.991l-5.375,6.976c-1.6-1.6-5.312-3.711-8.896-3.711c-1.664,0-2.368,0.831-2.368,1.344
		C206.604,356.369,221.643,355.409,221.643,365.2z M186.134,214.288c2.432,0,5.21-0.576,6.619-1.536l3.469,7.487
		c-3.136,1.984-7.384,2.816-11.096,2.816c-9.983,0-16.907-4.992-16.907-14.079c0-9.855,7.545-18.367,18.36-18.367
		c7.679,0,14.459,4.48,14.459,13.887c0,2.111-0.387,4.503-0.707,5.503H180v0.448C180,210.896,181.654,214.288,186.134,214.288z
		 M194.187,335.314c0,4.8-4.032,7.424-7.295,7.424c-3.392,0-5.823-2.496-5.823-5.504c0-4.8,4.031-7.424,7.295-7.424
		C191.755,329.811,194.187,332.307,194.187,335.314z M179.98,345h11.52l-6.848,31h-11.519L179.98,345z M222.861,191h11.519
		l0.32,17.022L243.915,191h10.304l1.6,17.022L263.689,191h12.224l-15.808,31h-12.542l-1.28-17.279L237.516,222h-12.543L222.861,191z
		 M292.106,190.61c10.943,0,16.511,6.399,16.511,14.399c0,9.471-7.552,18.047-18.494,18.047c-10.943,0-16.512-6.399-16.512-14.399
		C273.611,199.185,281.163,190.61,292.106,190.61z M323.402,38h5.119l1.856-9h11.519l-1.855,9h6.271l-2.24,10h-6.271l-1.663,7.432
		c-0.128,0.576-0.192,1.156-0.192,1.412c0,1.472,0.684,2.466,2.668,2.466c0.576,0,1.387-0.222,1.387-0.35v9.216
		c-1,0.832-3.18,1.28-5.291,1.28c-6.656,0-11.285-2.432-11.285-7.808c0-0.448,0.117-1.417,0.31-2.312L326.282,48h-5.12L323.402,38z
		 M301.065,37.01c10.943,0,16.511,6.399,16.511,14.399c0,9.471-7.552,18.047-18.494,18.047c-10.943,0-16.512-6.4-16.512-14.399
		C282.57,45.585,290.122,37.01,301.065,37.01z M285.963,115l-2.24,10h-6.271l-1.663,7.332c-0.128,0.576-0.192,1.106-0.192,1.362
		c0,1.472,0.857,2.441,2.842,2.441c0.576,0,1.562-0.247,1.562-0.375v9.216c-1,0.832-3.354,1.28-5.465,1.28
		c-6.656,0-11.373-2.432-11.373-7.808c0-0.448,0.072-1.316,0.265-2.212L265.933,125h-5.12l2.24-10h5.119l1.856-9h11.519l-1.855,9
		H285.963z M248.459,38h11.52l-0.832,3.408c2.24-2.048,5.056-4.343,9.728-4.343c6.463,0,10.175,3.492,10.175,8.1
		c0,0.512-0.191,2.062-0.32,2.638L274.058,69h-11.52l3.584-16.411c0.128-0.576,0.384-1.678,0.384-2.446
		c0-2.112-1.855-2.919-3.712-2.919c-2.495,0-4.224,1.417-5.439,2.504L253.131,69h-11.519L248.459,38z M229.709,125.137
		c0-5.695,4.799-11.327,13.759-11.327c5.184,0,10.624,1.728,14.399,4.992l-5.375,6.976c-1.601-1.6-5.312-3.712-8.896-3.712
		c-1.664,0-2.368,0.832-2.368,1.344c0,2.56,15.039,1.6,15.039,11.392c0,6.463-5.44,11.455-14.591,11.455
		c-5.695,0-11.967-1.984-16.062-5.696l5.887-7.231c1.984,1.92,6.976,4.736,11.264,4.736c1.152,0,1.983-0.512,1.983-1.152
		C244.748,133.392,229.709,135.12,229.709,125.137z M224.267,134H204v-0.352c0,0.448,1.622,3.84,6.102,3.84
		c2.433,0,5.195-0.576,6.603-1.536l3.461,7.487c-3.136,1.984-7.389,2.816-11.101,2.816c-9.983,0-16.909-4.992-16.909-14.079
		c0-9.855,7.544-18.367,18.359-18.367c7.679,0,14.459,4.88,14.459,14.287C224.975,130.208,224.587,132,224.267,134z M208.843,37.01
		c5.184,0,10.624,1.728,14.399,4.992l-5.375,6.976c-1.6-1.6-5.312-3.712-8.896-3.712c-1.664,0-2.368,0.832-2.368,1.344
		c0,2.56,15.039,1.6,15.039,11.392c0,6.463-5.44,11.455-14.591,11.455c-5.695,0-11.967-1.984-16.062-5.696l5.887-7.231
		c1.984,1.92,6.976,4.736,11.264,4.736c1.152,0,1.983-0.512,1.983-1.152c0-3.52-15.039-1.792-15.039-11.775
		C195.084,42.642,199.884,37.01,208.843,37.01z M188.364,22.611c3.392,0,5.823,2.496,5.823,5.503c0,4.8-4.032,7.424-7.295,7.424
		c-3.392,0-5.823-2.496-5.823-5.504C181.068,25.235,185.1,22.611,188.364,22.611z M179.98,38h11.52l-6.848,31h-11.519L179.98,38z
		 M169.614,115h5.12l1.856-9h11.519l-1.856,9h6.271l-2.24,10h-6.271l-1.664,7.332c-0.128,0.576-0.192,1.106-0.192,1.362
		c0,1.472,1.078,2.441,3.062,2.441c0.576,0,0.781-0.247,1.781-0.375v9.216c-2,0.832-3.573,1.28-5.685,1.28
		c-6.656,0-11.482-2.432-11.482-7.808c0-0.448,0.019-1.316,0.21-2.212L172.494,125h-5.12L169.614,115z M153.164,365.2
		c0,6.464-5.44,11.455-14.591,11.455c-5.695,0-11.967-1.983-16.062-5.695l5.887-7.231c1.984,1.92,6.976,4.735,11.264,4.735
		c1.152,0,1.983-0.512,1.983-1.151c0-3.52-15.039-1.792-15.039-11.775c0-5.695,4.799-11.327,13.759-11.327
		c5.184,0,10.624,1.728,14.399,4.991l-5.375,6.976c-1.6-1.6-5.312-3.711-8.896-3.711c-1.664,0-2.368,0.831-2.368,1.344
		C138.125,356.369,153.164,355.409,153.164,365.2z M97.293,376h-11.52l3.584-16.631c0.128-0.576,0.32-1.563,0.32-2.076
		c0-2.111-1.856-2.895-4.16-2.895c-2.048,0-3.776,1.33-4.992,2.418L76.366,376H64.847l9.407-43h11.519l-3.456,15.396
		c2.24-2.048,5.056-4.237,9.727-4.237c6.464,0,10.175,3.545,10.175,8.153c0,0.703-0.192,1.988-0.32,2.564L97.293,376z
		 M98.125,412.114c0,4.8-4.032,7.424-7.295,7.424c-3.392,0-5.823-2.496-5.823-5.504c0-4.8,4.031-7.423,7.295-7.423
		C95.694,406.611,98.125,409.106,98.125,412.114z M30.607,344l2.496-11h35.773l-2.496,11H54.99l-6.911,32H35.151l6.912-32H30.607z
		 M51.471,191h11.52l-0.832,3.708c2.24-2.048,5.056-4.193,9.727-4.193c6.464,0,10.175,3.567,10.175,8.174
		c0,0.512-0.192,1.8-0.32,2.375L77.069,222H65.55l3.584-16.111c0.128-0.575,0.384-1.527,0.384-2.295
		c0-2.112-1.856-2.844-3.712-2.844c-2.496,0-4.224,1.154-5.439,2.242L56.143,222H44.624L51.471,191z M39.503,189.138
		c-3.392,0-5.823-2.496-5.823-5.504c0-4.799,4.031-7.423,7.295-7.423c3.392,0,5.823,2.496,5.823,5.503
		C46.798,186.514,42.767,189.138,39.503,189.138z M92.813,113.682l-2.496,11.263c-0.576-0.192-1.984-0.512-3.456-0.512
		c-2.432,0-4.799,0.588-6.463,2.125L76.302,145H64.783l6.847-30h11.52l-0.768,3.181C84.75,115.749,88.333,113.682,92.813,113.682z
		 M91.919,132.176c0-9.855,7.551-18.367,18.367-18.367c7.679,0,14.463,4.88,14.463,14.287c0,2.112-0.384,3.903-0.704,5.903H103
		v-0.352c0,0.448,2.011,3.84,6.49,3.84c2.433,0,5.389-0.576,6.797-1.536l3.559,7.487c-3.136,1.984-7.34,2.816-11.052,2.816
		C98.811,146.255,91.919,141.264,91.919,132.176z M105.807,191h5.12l1.856-8h11.519l-1.856,8h6.271l-2.24,10h-6.271l-1.664,7.732
		c-0.128,0.576-0.192,1.306-0.192,1.562c0,1.472,0.981,2.541,2.965,2.541c0.576,0,1.685-0.146,1.685-0.274v9.215
		c-1,0.832-3.477,1.28-5.589,1.28c-6.656,0-11.434-2.432-11.434-7.808c0-0.448,0.042-1.716,0.234-2.612L108.687,201h-5.12
		L105.807,191z M125.708,335.314c0,4.8-4.032,7.424-7.295,7.424c-3.392,0-5.823-2.496-5.823-5.504c0-4.8,4.031-7.424,7.295-7.424
		C123.277,329.811,125.708,332.307,125.708,335.314z M111.501,345h11.52l-6.848,31h-11.519L111.501,345z M148.108,222l3.584-16.431
		c0.128-0.576,0.32-1.464,0.32-1.976c0-2.112-1.856-2.844-4.16-2.844c-2.048,0-3.776,1.154-4.992,2.242L138.701,222h-11.519
		l9.407-42h11.519l-3.456,15.096c2.24-2.048,5.056-4.387,9.727-4.387c6.464,0,10.175,3.471,10.175,8.078
		c0,0.704-0.192,1.751-0.32,2.327L159.628,222H148.108z M158.157,145h-11.519l0.768-3.02c-2.688,2.944-5.184,4.154-8.383,4.154
		c-6.912,0-11.519-4.483-11.519-12.803c0-8.575,5.312-19.552,16.319-19.552c3.52,0,6.976,1.506,8.959,4.258l0.704-3.037h11.519
		L158.157,145z M140.365,37.01c5.184,0,10.624,1.728,14.399,4.992l-5.375,6.976c-1.6-1.6-5.312-3.712-8.896-3.712
		c-1.664,0-2.368,0.832-2.368,1.344c0,2.56,15.039,1.6,15.039,11.392c0,6.463-5.44,11.455-14.591,11.455
		c-5.695,0-11.967-1.984-16.062-5.696l5.887-7.231c1.984,1.92,6.976,4.736,11.264,4.736c1.152,0,1.983-0.512,1.983-1.152
		c0-3.52-15.039-1.792-15.039-11.775C126.606,42.642,131.405,37.01,140.365,37.01z M119.885,22.611c3.392,0,5.823,2.496,5.823,5.503
		c0,4.8-4.032,7.424-7.295,7.424c-3.392,0-5.823-2.496-5.823-5.504C112.59,25.235,116.621,22.611,119.885,22.611z M111.501,38h11.52
		l-6.848,31h-11.519L111.501,38z M85.773,26l-3.456,15.296c2.24-2.048,5.056-4.287,9.727-4.287c6.464,0,10.175,3.52,10.175,8.127
		c0,0.704-0.192,2.077-0.32,2.652L97.293,69h-11.52l3.584-16.731c0.128-0.576,0.32-1.614,0.32-2.126c0-2.112-1.856-2.919-4.16-2.919
		c-2.048,0-3.776,1.417-4.992,2.504L76.366,69H64.847l9.407-43H85.773z M33.104,26h35.773l-2.496,11H54.99l-6.911,32H35.151
		l6.912-32H30.607L33.104,26z M38.543,144.655c-5.952,0-11.647-3.2-11.647-12.287s5.824-18.559,15.999-18.559
		c3.264,0,6.848,1.555,9.087,4.243L52.75,115h11.519l-6.144,27.307c-3.008,13.312-11.903,15.829-18.559,15.829
		c-6.335,0-11.967-1.652-16.062-5.556l6.463-7.642c1.856,2.368,6.08,3.699,9.407,3.699c2.944,0,5.952-1.094,7.231-6.534l0.384-1.604
		C44.75,143.187,41.743,144.655,38.543,144.655z M32.591,191h11.52l-6.848,31H25.744L32.591,191z M45.332,443.28
		c0.576,0,1.668-0.192,1.668-0.32v9.216c-1,0.832-3.46,1.279-5.572,1.279c-6.656,0-11.426-2.432-11.426-7.807
		c0-0.448,0.047-1.416,0.239-2.312L32.72,432H27.6l2.24-10h5.12l1.856-9h11.519l-1.856,9h6.271l-2.24,10h-6.271l-1.664,7.432
		c-0.128,0.576-0.158,1.156-0.158,1.412C42.417,442.315,43.348,443.28,45.332,443.28z M73.229,431.633
		c-2.432,0-4.799,0.988-6.463,2.524L62.67,453H51.151l6.847-31h11.52l-0.768,3.281c2.368-2.433,5.952-4.344,10.431-4.344
		l-2.496,11.234C76.109,431.98,74.702,431.633,73.229,431.633z M88.59,453H77.071l6.847-31h11.52L88.59,453z M117.133,453.455
		c-3.52,0-6.975-1.123-8.959-3.875L107.47,453H95.951l9.407-43h11.519l-3.328,15.039c2.688-2.943,5.184-4.03,8.383-4.03
		c6.912,0,11.519,4.545,11.519,12.864C133.452,442.448,128.141,453.455,117.133,453.455z M167.436,453h-11.519l0.832-3.676
		c-2.24,2.048-5.056,4.209-9.728,4.209c-6.463,0-10.175-3.559-10.175-8.166c0-0.512,0.192-1.828,0.32-2.404L141.838,422h11.52
		l-3.776,16.976c-0.128,0.576-0.192,0.969-0.192,1.416c0,2.112,1.856,2.917,3.904,2.917c2.304,0,4.032-1.247,5.248-2.335
		L162.765,422h11.519L167.436,453z M194.358,443.28c0.576,0,1.642-0.192,1.642-0.32v9.216c-1,0.832-3.434,1.279-5.545,1.279
		c-6.656,0-11.412-2.432-11.412-7.807c0-0.448,0.053-1.416,0.246-2.312L181.773,432h-5.12l2.24-10h5.12l1.856-9h11.519l-1.856,9
		h6.271l-2.24,10h-6.271l-1.664,7.432c-0.128,0.576-0.171,1.156-0.171,1.412C191.458,442.315,192.375,443.28,194.358,443.28z
		 M233.546,441H213v-0.151c0,0.447,1.762,3.84,6.241,3.84c2.433,0,5.265-0.576,6.673-1.536l3.496,7.487
		c-3.136,1.983-7.371,2.815-11.083,2.815c-9.983,0-16.9-4.991-16.9-14.078c0-9.855,7.548-18.367,18.364-18.367
		c7.679,0,14.461,4.779,14.461,14.188C234.252,437.309,233.867,440,233.546,441z M242.445,453.52c-3.456,0-6.208-2.88-6.208-6.336
		c0-4.031,3.456-7.423,7.487-7.423c3.456,0,6.208,2.88,6.208,6.335C249.932,450.128,246.477,453.52,242.445,453.52z
		 M253.387,374.555c-1.728,7.936-5.503,13.882-14.015,13.882c-4.672,0-7.616-0.771-9.792-2.562l4.479-8.193
		c0.96,1.023,2.24,1.344,3.584,1.344c2.048,0,3.583-1.589,4.224-4.469L248.459,345h11.52L253.387,374.555z M255.371,342.738
		c-3.393,0-5.824-2.496-5.824-5.504c0-4.8,4.032-7.424,7.296-7.424c3.392,0,5.823,2.496,5.823,5.504
		C262.666,340.114,258.635,342.738,255.371,342.738z M281.354,376l0.832-3.576c-2.24,2.049-5.056,4.26-9.728,4.26
		c-6.463,0-10.175-3.534-10.175-8.142c0-0.512,0.191-1.915,0.319-2.491L267.274,345h11.52l-3.776,17.076
		c-0.128,0.576-0.191,1.019-0.191,1.466c0,2.112,1.855,2.941,3.903,2.941c2.304,0,4.032-1.334,5.248-2.422L288.201,345h11.52
		l-6.848,31H281.354z M329.864,365.2c0,6.464-5.439,11.455-14.591,11.455c-5.696,0-11.968-1.983-16.063-5.695l5.888-7.231
		c1.984,1.92,6.976,4.735,11.264,4.735c1.151,0,1.983-0.512,1.983-1.151c0-3.52-15.039-1.792-15.039-11.775
		c0-5.695,4.8-11.327,13.76-11.327c5.184,0,10.623,1.728,14.398,4.991l-5.376,6.976c-1.6-1.6-5.312-3.711-8.895-3.711
		c-1.664,0-2.368,0.831-2.368,1.344C314.825,356.369,329.864,355.409,329.864,365.2z M325.963,203.457L321.867,222h-11.52l6.848-31
		h11.519l-0.768,3.581c2.368-2.432,5.951-4.193,10.432-4.193l-2.496,11.31c-0.576-0.192-1.984-0.561-3.456-0.561
		C329.994,201.137,327.626,201.921,325.963,203.457z M357.319,355h-6.271l-1.663,7.532c-0.128,0.576-0.192,1.206-0.192,1.462
		c0,1.472,1.06,2.491,3.044,2.491c0.576,0,0.764-0.197,1.764-0.325v9.216c-2,0.832-3.556,1.279-5.668,1.279
		c-6.655,0-11.473-2.432-11.473-7.807c0-0.448,0.022-1.517,0.215-2.413L339.529,355h-5.12l2.24-10h5.119l1.856-8h11.519l-1.855,8
		h6.271L357.319,355z M367.755,223.056c-6.912,0-11.52-4.544-11.52-12.863c0-8.575,5.312-19.583,16.318-19.583
		c3.521,0,6.976,1.479,8.96,4.23l3.327-14.84h11.52l-9.472,42H375.37l0.768-3.12C373.45,221.824,370.954,223.056,367.755,223.056z
		 M402.059,209.36c3.455,0,6.207,2.88,6.207,6.336c0,4.031-3.455,7.423-7.487,7.423c-3.456,0-6.207-2.88-6.207-6.335
		C394.571,212.752,398.026,209.36,402.059,209.36z M406.982,376h-11.519l0.768-3.32c-2.688,2.943-5.184,4.004-8.383,4.004
		c-6.912,0-11.52-4.558-11.52-12.877c0-8.576,5.312-19.59,16.318-19.59c3.521,0,6.976,1.288,8.96,4.04l0.704-3.257h11.519
		L406.982,376z M421.832,125h-6.271l-1.663,7.332c-0.128,0.576-0.192,1.106-0.192,1.362c0,1.472,0.803,2.441,2.787,2.441
		c0.576,0,1.508-0.247,1.508-0.375v9.216c-1,0.832-3.299,1.28-5.41,1.28c-6.656,0-11.346-2.432-11.346-7.808
		c0-0.448,0.086-1.316,0.278-2.212l2.52-11.235h-5.12l2.24-10h5.119l1.856-9h11.519l-1.855,9h6.271L421.832,125z M424.519,47.789
		L419.911,69h-11.52l3.584-16.731c0.128-0.576,0.32-1.614,0.32-2.126c0-2.112-1.856-2.919-4.16-2.919
		c-2.048,0-3.775,1.417-4.991,2.504L398.984,69h-11.52l9.408-43h11.519l-3.456,15.296c2.24-2.048,5.056-4.287,9.728-4.287
		c6.464,0,10.176,3.598,10.176,8.206C424.839,45.919,424.646,47.213,424.519,47.789z M460.614,57H440v-0.152
		c0,0.448,1.795,3.84,6.275,3.84c2.432,0,5.281-0.576,6.689-1.536l3.504,7.487c-3.136,1.984-7.366,2.816-11.078,2.816
		c-9.983,0-16.898-4.992-16.898-14.079c0-9.855,7.55-18.367,18.364-18.367c7.68,0,14.463,4.78,14.463,14.187
		C461.319,53.309,460.934,56,460.614,57z"/>
	<path fill="#4A5A70" d="M446.336,45.533c-3.072,0-4.984,2.467-5.368,3.467H451v0.297C451,48.401,449.983,45.533,446.336,45.533z"/>
</g>
</svg>
