<?xml version="1.0" encoding="utf-8"?>
<!-- Generator: Adobe Illustrator 16.2.1, SVG Export Plug-In . SVG Version: 6.00 Build 0)  -->
<!DOCTYPE svg PUBLIC "-//W3C//DTD SVG 1.1//EN" "http://www.w3.org/Graphics/SVG/1.1/DTD/svg11.dtd">
<svg version="1.1" id="Layer_1" xmlns="http://www.w3.org/2000/svg" xmlns:xlink="http://www.w3.org/1999/xlink" x="0px" y="0px"
	 width="250px" height="100px" viewBox="0 0 250 100" enable-background="new 0 0 250 100" xml:space="preserve">
<rect fill="#0099E6" width="250" height="100"/>
<g enable-background="new    ">
	<path fill="#FFFFFF" d="M44.81,63.892c-1.947,2.058-4.505,3.226-7.62,3.226c-2.225,0-4.338-0.556-5.951-1.501
		c0.111,0.667,0.111,1.501,0.111,2.336v8.898l-7.175,1.892V45.815c0-3.726-0.056-4.783-0.445-7.175l6.619-1.168
		c0.278,1.002,0.445,1.78,0.5,2.67c1.279-1.557,4.116-2.67,7.008-2.67c2.002,0,4.06,0.668,5.617,1.725
		c3.059,2.058,5.284,5.729,5.284,12.292C48.759,57.607,47.758,60.722,44.81,63.892z M39.916,45.927
		c-0.556-1.557-1.724-2.392-3.56-2.392c-1.835,0-3.615,0.779-4.95,2.17v13.849c1.001,0.834,2.614,1.668,4.116,1.668
		c3.671,0,5.117-2.502,5.117-9.01C40.639,49.486,40.417,47.317,39.916,45.927z"/>
</g>
<g enable-background="new    ">
	<path fill="#FFFFFF" d="M59.605,54.604v0.223c0,4.394,2.169,6.896,6.007,6.896c2.559,0,4.95-0.945,7.23-2.837l2.892,4.45
		c-3.281,2.669-6.73,3.948-10.734,3.948c-8.176,0-13.459-5.784-13.459-14.738c0-5.117,1.057-8.51,3.56-11.291
		c2.336-2.614,5.172-3.837,8.955-3.837c3.281,0,6.396,1.112,8.231,3.003c2.614,2.67,3.782,6.507,3.782,12.458v1.725H59.605z
		 M68.337,48.819c0-2.113-0.222-3.226-0.89-4.282c-0.723-1.113-1.78-1.669-3.282-1.669c-2.836,0-4.449,2.225-4.449,6.174v0.111
		h8.621V48.819z"/>
	<path fill="#FFFFFF" d="M101.207,64.837c-1.945,1.558-3.893,2.226-6.229,2.226c-2.781,0-4.728-0.835-6.34-2.614
		c-0.223,1.001-0.279,1.279-0.779,2.058h-6.674c0.556-1.279,0.723-2.113,0.723-6.062V34.08c0-3.504-0.111-5.395-0.5-7.008
		l7.619-1.779c0.223,1.946,0.277,3.114,0.277,5.061v6.73c0,0.834-0.055,2.058-0.166,2.503c1.445-1.558,3.448-2.28,6.062-2.28
		c6.952,0,11.291,5.562,11.291,14.46C106.492,57.552,104.712,62.057,101.207,64.837z M97.703,47.095
		c-0.556-2.447-2.113-3.615-4.06-3.615s-3.281,1.224-4.228,2.28v13.126c1.002,0.891,2.17,1.836,4.172,1.836
		c1.836,0,3.004-0.724,3.615-2.225c0.668-1.558,0.834-3.06,0.834-6.563C98.037,49.375,97.982,48.318,97.703,47.095z"/>
	<path fill="#FFFFFF" d="M131.91,64.837c-1.946,1.558-3.893,2.226-6.229,2.226c-2.781,0-4.729-0.835-6.341-2.614
		c-0.223,1.001-0.278,1.279-0.778,2.058h-6.675c0.556-1.279,0.724-2.113,0.724-6.062V34.08c0-3.504-0.111-5.395-0.501-7.008
		l7.62-1.779c0.223,1.946,0.277,3.114,0.277,5.061v6.73c0,0.834-0.055,2.058-0.166,2.503c1.445-1.558,3.447-2.28,6.062-2.28
		c6.951,0,11.29,5.562,11.29,14.46C137.194,57.552,135.414,62.057,131.91,64.837z M128.406,47.095
		c-0.557-2.447-2.113-3.615-4.061-3.615c-1.946,0-3.281,1.224-4.227,2.28v13.126c1.002,0.891,2.17,1.836,4.172,1.836
		c1.835,0,3.003-0.724,3.615-2.225c0.667-1.558,0.834-3.06,0.834-6.563C128.74,49.375,128.685,48.318,128.406,47.095z"/>
	<path fill="#FFFFFF" d="M150.6,67.173c-3.171,0-5.729-1.501-6.619-3.893c-0.557-1.446-0.668-2.336-0.668-6.396V35.638
		c0-3.727-0.111-6.007-0.389-8.565l7.619-1.724c0.278,1.557,0.39,3.393,0.39,7.396v22.192c0,4.895,0.056,5.562,0.501,6.34
		c0.277,0.501,0.89,0.779,1.502,0.779c0.277,0,0.444,0,0.834-0.111l1.279,4.449C153.77,66.896,152.212,67.173,150.6,67.173z"/>
	<path fill="#FFFFFF" d="M165.894,54.604v0.223c0,4.394,2.169,6.896,6.007,6.896c2.559,0,4.95-0.945,7.23-2.837l2.893,4.45
		c-3.281,2.669-6.73,3.948-10.734,3.948c-8.176,0-13.46-5.784-13.46-14.738c0-5.117,1.057-8.51,3.56-11.291
		c2.336-2.614,5.172-3.837,8.955-3.837c3.281,0,6.396,1.112,8.23,3.003c2.614,2.67,3.782,6.507,3.782,12.458v1.725H165.894z
		 M174.625,48.819c0-2.113-0.222-3.226-0.889-4.282c-0.724-1.113-1.78-1.669-3.281-1.669c-2.838,0-4.45,2.225-4.45,6.174v0.111h8.62
		V48.819z"/>
</g>
<g enable-background="new    ">
	<path fill="#FFFFFF" d="M190.311,69.25c-2.727,0-4.895-2.225-4.895-4.95c0-2.669,2.168-4.838,4.838-4.838
		c2.726,0,4.95,2.169,4.95,4.838C195.204,67.025,192.979,69.25,190.311,69.25z"/>
	<path fill="#FFFFFF" d="M206.162,36.658c-2.504,0-4.562-2.059-4.562-4.616c0-2.559,2.114-4.617,4.672-4.617
		c2.503,0,4.505,2.059,4.505,4.617C210.777,34.6,208.72,36.658,206.162,36.658z M202.436,68.36V40.385l7.452-1.168V68.36H202.436z"
		/>
	<path fill="#FFFFFF" d="M226.406,69.027c-3.781,0-6.785-1.668-7.675-4.171c-0.444-1.224-0.501-1.78-0.501-4.394V45.001h-2.836
		v-5.117h2.836c0-2.781,0-4.616,0.278-6.729l7.564-1.892c-0.278,2.614-0.445,5.729-0.445,8.621h6.675l-1.892,5.117h-4.783v14.294
		c0,3.615,0.667,4.561,3.226,4.561c0.668,0,1.336-0.167,2.67-0.557l0.945,4.45C230.301,68.639,228.354,69.027,226.406,69.027z"/>
</g>
</svg>
