<?xml version="1.0" encoding="utf-8"?>
<!-- Generator: Adobe Illustrator 16.2.1, SVG Export Plug-In . SVG Version: 6.00 Build 0)  -->
<!DOCTYPE svg PUBLIC "-//W3C//DTD SVG 1.1//EN" "http://www.w3.org/Graphics/SVG/1.1/DTD/svg11.dtd">
<svg version="1.1" id="Layer_1" xmlns="http://www.w3.org/2000/svg" xmlns:xlink="http://www.w3.org/1999/xlink" x="0px" y="0px"
	 width="350px" height="100px" viewBox="0 0 350 100" enable-background="new 0 0 350 100" xml:space="preserve">
<rect fill="#EC5080" width="350" height="100"/>
<g>
	<path fill="#FFFFFF" d="M44.707,63.775c-1.931,2.041-4.467,3.199-7.556,3.199c-2.206,0-4.303-0.552-5.901-1.49
		c0.11,0.662,0.11,1.49,0.11,2.317v8.824l-7.115,1.875V45.85c0-3.695-0.055-4.743-0.441-7.115l6.562-1.158
		c0.276,0.993,0.441,1.765,0.497,2.647c1.268-1.544,4.081-2.647,6.948-2.647c1.986,0,4.027,0.662,5.57,1.71
		c3.034,2.041,5.24,5.681,5.24,12.188C48.623,57.543,47.63,60.631,44.707,63.775z M39.854,45.961
		c-0.552-1.545-1.71-2.372-3.53-2.372c-1.82,0-3.584,0.773-4.908,2.151v13.733c0.992,0.828,2.592,1.654,4.081,1.654
		c3.64,0,5.074-2.481,5.074-8.935C40.571,49.491,40.35,47.339,39.854,45.961z"/>
	<path fill="#FFFFFF" d="M59.378,54.564v0.22c0,4.357,2.151,6.839,5.956,6.839c2.538,0,4.909-0.938,7.17-2.812l2.868,4.412
		c-3.254,2.648-6.673,3.916-10.645,3.916c-8.107,0-13.347-5.736-13.347-14.615c0-5.074,1.048-8.438,3.53-11.196
		c2.317-2.593,5.129-3.806,8.88-3.806c3.253,0,6.342,1.103,8.162,2.978c2.592,2.647,3.75,6.453,3.75,12.355v1.709H59.378z
		 M68.038,48.829c0-2.096-0.221-3.199-0.883-4.247c-0.717-1.103-1.765-1.654-3.254-1.654c-2.812,0-4.412,2.206-4.412,6.122v0.11
		h8.549V48.829z"/>
	<path fill="#FFFFFF" d="M99.122,64.712c-1.931,1.544-3.861,2.206-6.177,2.206c-2.758,0-4.688-0.827-6.288-2.592
		c-0.22,0.993-0.275,1.269-0.771,2.041h-6.619c0.551-1.269,0.717-2.096,0.717-6.011V34.213c0-3.475-0.11-5.35-0.496-6.949
		l7.556-1.765c0.22,1.931,0.275,3.089,0.275,5.019v6.674c0,0.827-0.055,2.041-0.165,2.481c1.434-1.544,3.419-2.261,6.012-2.261
		c6.894,0,11.196,5.516,11.196,14.34C104.361,57.488,102.597,61.955,99.122,64.712z M95.647,47.119
		c-0.552-2.427-2.096-3.585-4.026-3.585c-1.93,0-3.254,1.213-4.192,2.261v13.017c0.993,0.882,2.151,1.82,4.137,1.82
		c1.82,0,2.979-0.717,3.585-2.207c0.662-1.543,0.827-3.033,0.827-6.507C95.978,49.38,95.923,48.333,95.647,47.119z"/>
	<path fill="#FFFFFF" d="M128.034,64.712c-1.93,1.544-3.861,2.206-6.177,2.206c-2.758,0-4.688-0.827-6.288-2.592
		c-0.221,0.993-0.276,1.269-0.772,2.041h-6.619c0.552-1.269,0.717-2.096,0.717-6.011V34.213c0-3.475-0.11-5.35-0.496-6.949
		l7.556-1.765c0.221,1.931,0.276,3.089,0.276,5.019v6.674c0,0.827-0.055,2.041-0.166,2.481c1.434-1.544,3.419-2.261,6.012-2.261
		c6.894,0,11.195,5.516,11.195,14.34C133.273,57.488,131.508,61.955,128.034,64.712z M124.559,47.119
		c-0.551-2.427-2.096-3.585-4.026-3.585s-3.254,1.213-4.192,2.261v13.017c0.993,0.882,2.151,1.82,4.137,1.82
		c1.82,0,2.979-0.717,3.585-2.207c0.662-1.543,0.827-3.033,0.827-6.507C124.89,49.38,124.834,48.333,124.559,47.119z"/>
	<path fill="#FFFFFF" d="M144.972,67.029c-3.144,0-5.681-1.489-6.563-3.86c-0.551-1.435-0.662-2.317-0.662-6.343V35.758
		c0-3.695-0.11-5.957-0.386-8.494l7.556-1.709c0.275,1.544,0.386,3.364,0.386,7.335v22.005c0,4.854,0.055,5.516,0.496,6.288
		c0.276,0.497,0.883,0.772,1.489,0.772c0.276,0,0.441,0,0.827-0.11l1.269,4.413C148.115,66.753,146.572,67.029,144.972,67.029z"/>
	<path fill="#FFFFFF" d="M158.048,54.564v0.22c0,4.357,2.151,6.839,5.957,6.839c2.537,0,4.909-0.938,7.17-2.812l2.867,4.412
		c-3.254,2.648-6.673,3.916-10.644,3.916c-8.107,0-13.347-5.736-13.347-14.615c0-5.074,1.048-8.438,3.53-11.196
		c2.316-2.593,5.129-3.806,8.879-3.806c3.254,0,6.342,1.103,8.163,2.978c2.592,2.647,3.75,6.453,3.75,12.355v1.709H158.048z
		 M166.708,48.829c0-2.096-0.221-3.199-0.882-4.247c-0.718-1.103-1.765-1.654-3.254-1.654c-2.813,0-4.412,2.206-4.412,6.122v0.11
		h8.548V48.829z"/>
	<path fill="#FFFFFF" d="M195.442,76.81c-3.916,0-7.114-2.316-7.114-8.053v-9.486c0-3.419-4.578-3.805-5.957-3.805v-6.288
		c1.379,0,5.957-0.386,5.957-3.805v-9.541c0-5.736,3.033-7.998,7.114-7.998h5.791v6.288h-2.702c-3.364,0-3.585,2.041-3.585,3.53
		v8.879c0,5.13-3.199,5.516-5.515,5.736v0.11c2.316,0.166,5.515,0.551,5.515,5.681v8.935c0,1.489,0.221,3.53,3.585,3.53h2.702v6.288
		H195.442z"/>
	<path fill="#FFFFFF" d="M220.979,65.264c-1.985,1.159-4.191,1.765-6.894,1.765c-7.777,0-12.299-5.405-12.299-14.56
		c0-6.508,2.481-10.81,5.791-13.071c1.875-1.269,4.633-2.096,7.004-2.096c1.875,0,3.916,0.441,5.46,1.269
		c1.048,0.551,1.544,0.937,2.757,1.985l-3.584,4.854c-1.489-1.379-3.088-2.206-4.467-2.206c-3.309,0-4.798,2.868-4.798,9.486
		c0,3.696,0.496,5.901,1.434,7.115c0.772,0.993,2.041,1.6,3.309,1.6c1.71,0,3.254-0.717,5.074-2.316l0.441-0.386l3.364,4.468
		C222.468,64.271,221.972,64.657,220.979,65.264z"/>
	<path fill="#FFFFFF" d="M246.554,63.058c-2.151,2.426-4.964,3.916-9.321,3.916c-7.666,0-12.685-5.736-12.685-14.616
		s5.074-14.781,12.685-14.781c4.026,0,7.17,1.379,9.597,4.247c2.261,2.647,3.253,5.736,3.253,10.313
		C250.083,56.991,248.98,60.301,246.554,63.058z M240.542,44.527c-0.717-0.938-1.875-1.489-3.199-1.489
		c-1.765,0-3.199,1.103-3.806,2.868c-0.497,1.489-0.772,3.475-0.772,6.288c0,3.254,0.332,5.681,0.938,7.115
		c0.662,1.544,2.316,2.316,3.75,2.316c3.199,0,4.578-2.868,4.578-9.542C242.031,48.277,241.535,45.795,240.542,44.527z"/>
	<path fill="#FFFFFF" d="M271.743,66.367c-0.221-0.441-0.331-0.883-0.441-1.655c-1.82,1.6-3.972,2.372-6.508,2.372
		c-7.17,0-11.692-5.571-11.692-14.34c0-8.824,4.908-14.891,12.078-14.891c2.041,0,3.64,0.496,5.019,1.6
		c-0.11-0.607-0.221-2.538-0.221-4.192v-9.706l7.335,1.158v29.341c0,6.949,0.551,9.21,1.048,10.313H271.743z M270.088,45.575
		c-1.379-1.213-2.702-1.82-4.026-1.82c-3.309,0-4.743,2.758-4.743,9.045c0,6.067,1.269,8.053,5.129,8.053
		c1.379,0,2.923-0.938,3.64-1.82V45.575z"/>
	<path fill="#FFFFFF" d="M289.905,54.564v0.22c0,4.357,2.151,6.839,5.957,6.839c2.537,0,4.908-0.938,7.169-2.812l2.868,4.412
		c-3.254,2.648-6.673,3.916-10.645,3.916c-8.107,0-13.346-5.736-13.346-14.615c0-5.074,1.047-8.438,3.53-11.196
		c2.316-2.593,5.128-3.806,8.879-3.806c3.254,0,6.343,1.103,8.163,2.978c2.592,2.647,3.751,6.453,3.751,12.355v1.709H289.905z
		 M298.564,48.829c0-2.096-0.221-3.199-0.882-4.247c-0.717-1.103-1.765-1.654-3.255-1.654c-2.812,0-4.412,2.206-4.412,6.122v0.11
		h8.549V48.829z"/>
	<path fill="#FFFFFF" d="M320.239,59.271v9.541c0,5.736-3.034,7.998-7.115,7.998h-5.791v-6.288h2.702
		c3.365,0,3.585-2.041,3.585-3.53v-8.879c0-5.129,3.199-5.515,5.515-5.736v-0.11c-2.316-0.165-5.515-0.551-5.515-5.681v-8.934
		c0-1.489-0.22-3.53-3.585-3.53h-2.702v-6.288h5.957c3.75,0,6.949,2.317,6.949,8.053v9.486c0,3.419,4.412,3.805,5.956,3.805v6.288
		C324.651,55.466,320.239,55.852,320.239,59.271z"/>
</g>
</svg>
