<?xml version="1.0" encoding="utf-8"?>
<!-- Generator: Adobe Illustrator 17.0.0, SVG Export Plug-In . SVG Version: 6.00 Build 0)  -->
<!DOCTYPE svg PUBLIC "-//W3C//DTD SVG 1.1//EN" "http://www.w3.org/Graphics/SVG/1.1/DTD/svg11.dtd">
<svg version="1.1" id="Layer_1" xmlns="http://www.w3.org/2000/svg" xmlns:xlink="http://www.w3.org/1999/xlink" x="0px" y="0px"
	 width="229.4px" height="582.9px" viewBox="0 0 229.4 582.9" enable-background="new 0 0 229.4 582.9" xml:space="preserve">
<g>
	<g>
		<path fill="#FFFFFF" d="M135.5,298.2c5,5.3,14.4,4.7,20.4,1.5c6-3.2,6.3-10.6,0.9-14.3c-4.3-2.9-12.7-4-17.4-1.5
			c-4.5,2.4-2.5,7,1,9.3c4.7,3,6.5-2.8,6.6-6.3c0.2-8.1-1.2-16.3-2-24.3c-3.2-32.4-4.8-64.9-3.9-97.4c1.5-53,9.2-105.8,21.8-157.3
			c0.8-3.1-4.1-4.5-4.8-1.3c-13.1,53.7-20.9,108.7-22.1,164c-0.7,33,1.4,65.7,4.7,98.5c0.5,5,1.1,10,1.3,15c0.1,1.5,0.1,2.9,0,4.4
			c-0.1,0.8-0.5,1.3-0.2,1c1.1-1,2.2,0.1,0.8-0.8c0.5,0.3-0.7-1.3-0.9-0.4c-0.1,0.6,0.7,0,1.3-0.2c2-0.5,4.2-0.3,6.2,0
			c3.5,0.5,9.4,2.8,5.2,6.9c-3.4,3.3-12,3.3-15.2-0.1C136.8,292.3,133.3,295.8,135.5,298.2L135.5,298.2z"/>
	</g>
	<path fill="#FCE2BB" d="M55,327.3c0,0,22.6-31.3,45.6-62.2c0,0,87,5.9,89.8,10.9c2.9,5,28.4,56.3,34,67c0,0-17.3,143.7-26.4,235.5
		L31.5,562.9C43,457.6,47.8,412,55.2,328.3"/>
	<g>
		<path fill="#FFFFFF" d="M29.9,312.8c0,0,22.8-30.7,46.1-60.9c0,0,88.6,6.3,91.6,11.3c2.9,4.9,29.3,55.5,35,66.1
			c0,0-16.7,141.3-25.4,231.6L7.5,544.4c11-103.5,15.7-148.3,22.7-230.7"/>
		<g>
			<path fill="#FFFFFF" d="M32.1,314.1c15.2-20.4,30.6-40.7,46.1-60.9c-0.7,0.4-1.4,0.8-2.2,1.2c25.3,1.8,50.7,3.7,75.7,7.4
				c4.3,0.6,9.5,1.1,13.4,2.7c1,0.4,0.3,0,0.4,0.1c0.4,0.6,0.7,1.2,1,1.9c1.4,2.6,2.8,5.1,4.1,7.7c8.3,15.6,16.4,31.2,24.7,46.8
				c1.4,2.6,2.8,5.2,4.1,7.8c0.6,1.1,0.4,1.7,0.6,0.6c0,0.3-0.1,0.5-0.1,0.8c-0.4,3.2-0.8,6.4-1.1,9.6c-1.7,14.8-3.4,29.5-5.1,44.3
				c-5.3,45.9-10.4,91.8-15.2,137.7c-1.4,13-2.7,26-3.9,39c0.8-0.8,1.7-1.7,2.5-2.5c-49.6-4.8-99.3-9.6-148.9-14.4
				c-6.9-0.7-13.9-1.3-20.8-2c0.8,0.8,1.7,1.7,2.5,2.5c8.2-76.8,16.1-153.7,22.7-230.7c0.3-3.2-4.7-3.2-5,0
				c-6.6,77-14.5,153.8-22.7,230.7c-0.2,1.4,1.3,2.4,2.5,2.5c49.6,4.8,99.3,9.6,148.9,14.4c6.9,0.7,13.9,1.3,20.8,2
				c1.5,0.1,2.4-1.3,2.5-2.5c7.4-76.7,16.2-153.3,25.2-229.8c0.3-3-1.2-4.9-2.6-7.6c-3.8-7.1-7.6-14.3-11.3-21.5
				c-7-13.2-13.6-26.7-21-39.7c-1.6-2.7-5.4-3.2-8.2-3.8c-6.1-1.3-12.4-2.1-18.6-2.9c-16-2-32-3.4-48.1-4.7
				c-5.3-0.4-10.6-0.9-16-1.3c-1-0.1-2-0.2-3-0.2c-1-0.1-1.7,0.5-2.2,1.2c-2.8,3.6-5.6,7.3-8.4,10.9c-12.7,16.6-25.3,33.2-37.7,50
				C25.9,314.1,30.2,316.6,32.1,314.1L32.1,314.1z"/>
		</g>
	</g>
	<g>
		<g>
			<path fill="#F6AC40" d="M63.5,382.6c-2.9-1.6-7.8-4.2-11.2-1.9c-3,2-3.7,5.3-3.2,8.7c0.8,5.1,3.4,9.4,6,13.8
				c3.4,5.7,7,13.7-0.6,18.2c-2.7,1.6-6.4,2.1-9.4,2.3c-0.5,0-3.3,0-3.4-0.3c-0.1-2,2.3-3.6,4-3.6c6.8-0.1,14.8,8,18.9,12.8
				c2.1,2.5,5.6-1.1,3.5-3.5c-5.4-6.3-13.9-13.6-22.4-14.3c-7.4-0.6-13.3,11.6-4.3,13.7c8.9,2.1,18.7-2.8,22.1-11.1
				c2.5-6.1-1.9-12.9-4.8-17.9c-2-3.3-3.8-6.5-4.6-10.3c-1.2-5.7,3.5-4,6.8-2.2C63.8,388.5,66.3,384.2,63.5,382.6L63.5,382.6z"/>
		</g>
		<g>
			<path fill="#F6AC40" d="M43,405.8c9.9,1,19.8,1.9,29.8,2.9c3.2,0.3,3.2-4.7,0-5c-9.9-1-19.8-1.9-29.8-2.9
				C39.8,400.5,39.8,405.5,43,405.8L43,405.8z"/>
		</g>
	</g>
	<g>
		<path fill="#F6AC40" d="M85.5,396.2c3.2-0.7,13-2.7,14.9,1.8c1.8,4.3-8.5,7.7-10.9,8.4c-2,0.6-2.6,3.5-0.6,4.6
			c4.6,2.5,14.1,8.9,6.7,13.9c-3.4,2.3-11,3.5-11.1-2.3c0-3.2-5-3.2-5,0c0.1,9.9,11.1,10.8,18,7c3.5-1.9,6-5.4,5.8-9.5
			c-0.3-6.4-7.1-10.7-12-13.4c-0.2,1.5-0.4,3-0.6,4.6c6.1-1.9,16.5-6.4,14.4-14.6c-2.1-8.2-15.2-6.5-21-5.3
			C81,392,82.4,396.8,85.5,396.2L85.5,396.2z"/>
	</g>
	<g>
		<path fill="#F6AC40" d="M123.8,396c13.6-6.2,16.3,23.2,3.8,28.1c-6.2,2.4-10-2.5-11.5-7.9C113.9,408.1,116.5,400.3,123.8,396
			c2.8-1.6,0.3-6-2.5-4.3c-10.1,5.9-12.5,16.4-9.6,27.2c2.3,8.7,10.2,12.8,18.6,9.5c17.9-7,11.8-46.2-8.9-36.7
			C118.4,393,120.9,397.3,123.8,396z"/>
	</g>
	<g>
		<path fill="#F6AC40" d="M152.6,396.9c-7.1,5.8-8.6,16.2-6.6,24.6c1.9,8.3,9.2,14.4,17.7,10.7c10.1-4.4,13.3-14.3,11.5-24.6
			c-1.6-8.7-8.2-18.5-18-17.9c-3.2,0.2-3.2,5.2,0,5c7.4-0.4,11.4,7,13,13.2c1.9,7.7-0.2,15.1-7.1,19.1c-6.7,3.9-11-1.6-12.3-7.7
			c-1.5-6.6,0.2-14.6,5.6-18.9C158.7,398.4,155.1,394.9,152.6,396.9L152.6,396.9z"/>
	</g>
	<g>
		<path fill="#F6AC40" d="M110,281.3c14-26.4,47.6-1.6,32.5,20.7C130.7,319.4,100.6,298.9,110,281.3z"/>
		<g>
			<path fill="#F6AC40" d="M112.1,282.5c4.6-8.3,12.8-12.8,21.8-8.2c7.6,3.9,11.4,12.6,9.2,20.8C137,317.3,103.4,300.5,112.1,282.5
				c1.4-2.9-2.9-5.4-4.3-2.5c-11.5,23.5,29.1,44.9,39.3,18.5c4.2-11-0.6-22.8-10.7-28.5c-11.2-6.3-22.8-0.3-28.6,10
				C106.2,282.8,110.6,285.3,112.1,282.5z"/>
		</g>
	</g>
	<g>
		<path fill="#FCE2BB" d="M117.1,296.4c5,5.3,14.4,4.7,20.4,1.5c6-3.2,6.3-10.6,0.9-14.3c-4.3-2.9-12.7-4-17.4-1.5
			c-4.6,2.5-2.3,6.8,0.9,9.2c8.7,6.4,7.6-11.1,7.5-14.9c-1.1-68.2,12.1-134.8,31.5-200c5-16.8,10.5-33.4,16.2-49.9
			c1.1-3.1-3.8-4.4-4.8-1.3c-26.5,76-47.9,156.2-48.1,237.3c0,5.9,0.1,11.9,0.2,17.8c0,1.8,0,3.5-0.1,5.3c0,0.6-0.2,1.8-0.1,1.4
			c-0.1,0.4-0.5,1.8-0.2,0.9c-0.1,0.3,1-0.4,1.2-0.3c0.1,0,0.1,0.1-0.6-0.4c-0.6-0.4-0.1,0-0.3-0.2c-0.4-0.3-0.8-0.6-1.1-1
			c0.3,0.4-0.8,0.9,0.1,0.5c3.6-1.5,11.5-0.8,13.8,2.7c2,3.2-4.2,5.3-6.1,5.8c-3.3,0.8-8,0.5-10.5-2.1
			C118.4,290.5,114.9,294.1,117.1,296.4L117.1,296.4z"/>
	</g>
</g>
</svg>
