<?xml version="1.0" encoding="utf-8"?>
<!-- Generator: Adobe Illustrator 17.0.0, SVG Export Plug-In . SVG Version: 6.00 Build 0)  -->
<!DOCTYPE svg PUBLIC "-//W3C//DTD SVG 1.1//EN" "http://www.w3.org/Graphics/SVG/1.1/DTD/svg11.dtd">
<svg version="1.1" id="Layer_1" xmlns="http://www.w3.org/2000/svg" xmlns:xlink="http://www.w3.org/1999/xlink" x="0px" y="0px"
	 width="648px" height="567.8px" viewBox="0 0 648 567.8" enable-background="new 0 0 648 567.8" xml:space="preserve">
<g>
	<g>
		<g>
			<path fill="#F5AB41" d="M128.4,53.2C125.1,22.3,108,7.3,82.5,11c-22.1,3.3-37.6,15.3-37.6,42.1H128.4z"/>
			<g>
				<path fill="#F5AB41" d="M129.7,53.2c-1.3-12.1-4.8-24.3-13.3-33.3c-7.4-7.8-18-11-28.5-10.6c-11.1,0.4-22.8,4-31.3,11.2
					C47,28.6,43.8,41.1,43.7,53.2c0,0.7,0.6,1.3,1.3,1.3c27.8,0,55.6,0,83.5,0c1.6,0,1.6-2.5,0-2.5c-27.8,0-55.6,0-83.5,0
					c0.4,0.4,0.8,0.8,1.3,1.3c0.1-11.3,3-22.4,11.5-30.4c7.7-7.2,19-10.2,29.2-11c10-0.7,19.8,2.2,27.1,9.2
					c8.5,8.3,11.9,20.7,13.1,32.1C127.3,54.8,129.8,54.8,129.7,53.2z"/>
			</g>
		</g>
		<g>
			<path fill="#585656" d="M130,63.8c-12-0.2-76.8,0.4-86.6,0.2c0.5,14,0.3,21.7-0.2,39.3h85.3C128.5,87.9,130,63.8,130,63.8z"/>
			<g>
				<path fill="#585656" d="M130,62.5c-28.9-0.5-57.7,0.7-86.6,0.2c-0.7,0-1.3,0.6-1.3,1.3c0.4,13.1,0.2,26.2-0.2,39.3
					c0,0.7,0.6,1.3,1.3,1.3c28.4,0,56.8,0,85.3,0c0.7,0,1.3-0.6,1.3-1.3c0-13.2,0.7-26.4,1.5-39.5c0.1-1.6-2.4-1.6-2.5,0
					c-0.8,13.1-1.5,26.3-1.5,39.5c0.4-0.4,0.8-0.8,1.3-1.3c-28.4,0-56.8,0-85.3,0c0.4,0.4,0.8,0.8,1.3,1.3
					c0.4-13.1,0.6-26.2,0.2-39.3c-0.4,0.4-0.8,0.8-1.3,1.3c28.8,0.5,57.7-0.6,86.6-0.2C131.7,65.1,131.7,62.5,130,62.5z"/>
			</g>
		</g>
	</g>
	<g>
		<g>
			<path fill="#585656" d="M489,60.6c3.6,34.1,22.6,50.7,50.8,46.6c24.4-3.6,41.5-16.9,41.5-46.6H489z"/>
			<g>
				<path fill="#585656" d="M487.6,60.6c1.5,13.4,5.3,26.9,14.7,36.9c8.2,8.7,19.9,12.1,31.5,11.7c12.3-0.4,25.2-4.4,34.6-12.4
					c10.5-8.9,14.1-22.8,14.2-36.1c0-0.8-0.6-1.4-1.4-1.4c-30.8,0-61.5,0-92.3,0c-1.8,0-1.8,2.8,0,2.8c30.8,0,61.5,0,92.3,0
					c-0.5-0.5-0.9-0.9-1.4-1.4c-0.1,12.5-3.3,24.8-12.7,33.6c-8.5,7.9-21,11.3-32.3,12.1c-11.1,0.8-21.9-2.4-29.9-10.2
					c-9.4-9.1-13.1-22.8-14.5-35.5C490.2,58.8,487.4,58.8,487.6,60.6z"/>
			</g>
		</g>
		<g>
			<path fill="#F5AB41" d="M564.9,49.1c-12-18.5-23.7-36.1-28.3-41.2c-3.7,2.9-17.6,21.5-31.2,40.4L564.9,49.1z"/>
			<g>
				<path fill="#F5AB41" d="M566.6,48.1c-5.6-8.6-11.2-17.2-16.9-25.6c-3.7-5.4-7.3-11-11.7-16c-0.8-0.9-2-0.6-2.8,0
					c-4.7,3.8-8.2,9.4-11.8,14.1c-6.7,8.8-13.2,17.7-19.6,26.7c-0.9,1.3,0.3,3,1.7,3c19.8,0.3,39.6,0.5,59.4,0.8c2.6,0,2.6-3.9,0-4
					c-19.8-0.3-39.6-0.5-59.4-0.8c0.6,1,1.1,2,1.7,3c6.2-8.6,12.5-17.2,18.9-25.7c3.6-4.8,7.3-10.5,12-14.3c-0.9,0-1.9,0-2.8,0
					c4.1,4.7,7.5,10,11,15.2c5.8,8.5,11.4,17,16.9,25.6C564.5,52.2,568,50.2,566.6,48.1z"/>
			</g>
		</g>
	</g>
	<g>
		<g>
			<path fill="#F5AB41" d="M264.9,52.7c12,0.2,76.8-0.4,86.6-0.2c-0.5-14-0.3-21.7,0.2-39.3h-85.3C266.4,28.5,264.9,52.7,264.9,52.7
				z"/>
			<g>
				<path fill="#F5AB41" d="M264.9,53.6c28.9,0.5,57.7-0.7,86.6-0.2c0.5,0,0.9-0.4,0.9-0.9c-0.4-13.1-0.2-26.2,0.2-39.3
					c0-0.5-0.4-0.9-0.9-0.9c-28.4,0-56.8,0-85.3,0c-0.5,0-0.9,0.4-0.9,0.9c0,13.2-0.7,26.4-1.5,39.5c-0.1,1.2,1.7,1.2,1.8,0
					c0.8-13.1,1.5-26.3,1.5-39.5c-0.3,0.3-0.6,0.6-0.9,0.9c28.4,0,56.8,0,85.3,0c-0.3-0.3-0.6-0.6-0.9-0.9
					c-0.4,13.1-0.6,26.2-0.2,39.3c0.3-0.3,0.6-0.6,0.9-0.9c-28.8-0.5-57.7,0.6-86.6,0.2C263.7,51.7,263.7,53.5,264.9,53.6z"/>
			</g>
		</g>
		<g>
			<path fill="#585656" d="M338,64.3c2.2,3,25,34.5,29.3,40.9c0,0-76,1.4-114-0.8c0,0,12.6-21,25.6-41.7
				C279,62.8,335.9,61.4,338,64.3z"/>
			<g>
				<path fill="#585656" d="M336.9,65c9.9,13.5,19.9,27.1,29.3,40.9c0.4-0.6,0.7-1.3,1.1-1.9c-37.9,0.7-76.1,1.3-114-0.8
					c0.4,0.6,0.7,1.3,1.1,1.9c5.8-9.6,11.7-19.2,17.5-28.7c2.4-3.9,4.9-7.9,7.3-11.8c0.4-0.6-0.7-0.6,0-0.6c0.4,0,0.7,0,1.1,0
					c2.9-0.1,5.9-0.1,8.8-0.2c9.7-0.2,19.3-0.2,29-0.1c4.3,0.1,8.6,0.2,12.8,0.5c1.4,0.1,5.4,0,6.2,0.9c1.1,1.2,2.9-0.6,1.8-1.8
					c-1.2-1.3-4-1.3-5.7-1.5c-4.1-0.4-8.3-0.5-12.4-0.6c-10.4-0.3-20.8-0.2-31.1,0c-3.1,0-6.2,0.1-9.4,0.2c-0.5,0-0.9,0-1.4,0
					c-1,0-1.4,1.1-1.8,1.8c-1.5,2.4-3,4.8-4.4,7.1c-6.9,11.1-13.7,22.2-20.4,33.3c-0.5,0.9,0.2,1.8,1.1,1.9c37.9,2.1,76,1.5,114,0.8
					c0.9,0,1.6-1.1,1.1-1.9C359,90.8,349,77.2,339.1,63.7C338.2,62.4,336,63.7,336.9,65z"/>
			</g>
		</g>
	</g>
	<g>
		<g>
			<path fill="#585656" d="M42.5,252.7c3.4,32.1,21.3,47.8,47.8,43.9c23-3.4,39.1-15.9,39.1-43.9H42.5z"/>
			<g>
				<path fill="#585656" d="M41.2,252.7c1.4,12.6,5,25.3,13.9,34.7c7.7,8.2,18.7,11.4,29.7,11c11.6-0.4,23.7-4.2,32.6-11.7
					c9.9-8.4,13.3-21.5,13.4-34c0-0.7-0.6-1.3-1.3-1.3c-29,0-58,0-87,0c-1.7,0-1.7,2.6,0,2.6c29,0,58,0,87,0
					c-0.4-0.4-0.9-0.9-1.3-1.3c-0.1,11.8-3.1,23.4-12,31.6c-8,7.5-19.8,10.7-30.5,11.4c-10.4,0.7-20.6-2.3-28.2-9.6
					c-8.9-8.6-12.4-21.5-13.7-33.4C43.7,251,41,251,41.2,252.7z"/>
			</g>
		</g>
		<g>
			<path fill="#F5AB41" d="M40.8,242.1c12.5,0.2,80-0.4,90.2-0.2c-0.5-14.6-0.3-22.6,0.2-41H42.4C42.4,217,40.8,242.1,40.8,242.1z"
				/>
			<g>
				<path fill="#F5AB41" d="M40.8,243c30.1,0.5,60.1-0.7,90.2-0.2c0.5,0,1-0.4,0.9-0.9c-0.4-13.7-0.2-27.3,0.2-41
					c0-0.5-0.4-0.9-0.9-0.9c-29.6,0-59.2,0-88.8,0c-0.5,0-0.9,0.4-0.9,0.9c0,13.7-0.7,27.5-1.6,41.2c-0.1,1.2,1.8,1.2,1.9,0
					c0.9-13.7,1.5-27.4,1.6-41.2c-0.3,0.3-0.6,0.6-0.9,0.9c29.6,0,59.2,0,88.8,0c-0.3-0.3-0.6-0.6-0.9-0.9
					c-0.4,13.7-0.6,27.3-0.2,41c0.3-0.3,0.6-0.6,0.9-0.9c-30.1-0.5-60.1,0.7-90.2,0.2C39.6,241.1,39.6,243,40.8,243z"/>
			</g>
		</g>
	</g>
	<g>
		<g>
			<path fill="#585656" d="M356.4,253.1c-12.5-0.2-80,0.4-90.2,0.2c0.5,14.6,0.3,22.6-0.2,41h88.8
				C354.9,278.2,356.4,253.1,356.4,253.1z"/>
			<g>
				<path fill="#585656" d="M356.4,251.7c-30.1-0.5-60.1,0.7-90.2,0.2c-0.7,0-1.3,0.6-1.3,1.3c0.4,13.7,0.2,27.3-0.2,41
					c0,0.7,0.6,1.3,1.3,1.3c29.6,0,59.2,0,88.8,0c0.7,0,1.3-0.6,1.3-1.3c0-13.7,0.7-27.5,1.6-41.2c0.1-1.7-2.5-1.7-2.6,0
					c-0.9,13.7-1.5,27.4-1.6,41.2c0.4-0.4,0.9-0.9,1.3-1.3c-29.6,0-59.2,0-88.8,0c0.4,0.4,0.9,0.9,1.3,1.3c0.4-13.7,0.6-27.3,0.2-41
					c-0.4,0.4-0.9,0.9-1.3,1.3c30.1,0.5,60.1-0.7,90.2-0.2C358.1,254.4,358.1,251.8,356.4,251.7z"/>
			</g>
		</g>
		<g>
			<path fill="#F5AB41" d="M336.2,241.6c-11.3-17.5-22.3-34-26.6-38.8c-3.5,2.7-16.6,20.3-29.3,38.1L336.2,241.6z"/>
			<g>
				<path fill="#F5AB41" d="M337.8,240.7c-5.2-8.1-10.5-16.2-15.9-24.2c-3.5-5.1-6.9-10.4-11-15c-0.7-0.8-1.9-0.6-2.7,0
					c-4.4,3.5-7.8,8.8-11.1,13.3c-6.3,8.3-12.4,16.7-18.5,25.2c-0.9,1.2,0.3,2.8,1.6,2.8c18.7,0.3,37.3,0.5,56,0.8
					c2.4,0,2.4-3.7,0-3.7c-18.7-0.3-37.3-0.5-56-0.8c0.5,0.9,1.1,1.9,1.6,2.8c5.8-8.1,11.7-16.2,17.8-24.2
					c3.4-4.5,6.8-9.9,11.3-13.5c-0.9,0-1.8,0-2.7,0c3.9,4.4,7.1,9.4,10.4,14.3c5.4,8,10.7,16.1,15.9,24.2
					C335.9,244.6,339.2,242.7,337.8,240.7z"/>
			</g>
		</g>
	</g>
	<g>
		<g>
			<path fill="#F5AB41" d="M578,242.5c-3.4-32.1-21.3-47.8-47.8-43.9c-23,3.4-39.1,15.9-39.1,43.9H578z"/>
			<g>
				<path fill="#F5AB41" d="M579.3,242.5c-1.4-12.6-5-25.3-13.9-34.7c-7.7-8.2-18.7-11.4-29.7-11c-11.6,0.4-23.7,4.2-32.6,11.7
					c-9.9,8.4-13.3,21.5-13.4,34c0,0.7,0.6,1.3,1.3,1.3c29,0,58,0,87,0c1.7,0,1.7-2.6,0-2.6c-29,0-58,0-87,0
					c0.4,0.4,0.9,0.9,1.3,1.3c0.1-11.8,3.1-23.4,12-31.6c8-7.5,19.8-10.7,30.5-11.4c10.4-0.7,20.6,2.3,28.2,9.6
					c8.9,8.6,12.4,21.5,13.7,33.4C576.8,244.2,579.5,244.2,579.3,242.5z"/>
			</g>
		</g>
		<g>
			<path fill="#585656" d="M566.3,255.1c2.3,3.1,26,36,30.5,42.6c0,0-79.2,1.4-118.7-0.8c0,0,13.2-21.8,26.7-43.4
				C504.8,253.5,564.1,252,566.3,255.1z"/>
			<g>
				<path fill="#585656" d="M565.2,255.8c10.3,14.1,20.7,28.2,30.5,42.6c0.4-0.7,0.8-1.3,1.1-2c-39.5,0.7-79.3,1.4-118.7-0.8
					c0.4,0.7,0.8,1.3,1.1,2c6-10,12.1-19.9,18.3-29.9c2.5-4.1,5.1-8.2,7.6-12.3c0.4-0.6-0.8-0.6,0-0.6c0.4,0,0.7,0,1.1,0
					c3.1-0.1,6.1-0.1,9.2-0.2c10.1-0.2,20.1-0.2,30.2-0.1c4.5,0.1,8.9,0.2,13.4,0.5c1.4,0.1,5.6,0,6.4,1c1.1,1.3,3-0.6,1.9-1.9
					c-1.3-1.4-4.2-1.4-5.9-1.5c-4.3-0.5-8.6-0.5-12.9-0.7c-10.8-0.3-21.6-0.2-32.4,0c-3.3,0-6.5,0.1-9.8,0.2c-0.5,0-1,0-1.4,0
					c-1,0-1.4,1.2-1.9,1.9c-1.5,2.5-3.1,4.9-4.6,7.4c-7.2,11.5-14.3,23.1-21.3,34.7c-0.5,0.9,0.2,1.9,1.1,2
					c39.5,2.2,79.2,1.5,118.7,0.8c0.9,0,1.7-1.1,1.1-2c-9.8-14.4-20.2-28.6-30.5-42.6C566.5,253.1,564.2,254.4,565.2,255.8z"/>
			</g>
		</g>
	</g>
	<g>
		<g>
			<g>
				<path fill="#585656" d="M344.3,483.8c-10.5-0.2-67,0.3-75.5,0.2c0.4,12.2,0.3,18.9-0.2,34.3H343
					C343,504.8,344.3,483.8,344.3,483.8z"/>
				<g>
					<path fill="#585656" d="M344.3,482.6c-25.2-0.4-50.4,0.6-75.5,0.2c-0.6,0-1.2,0.6-1.2,1.2c0.4,11.4,0.2,22.9-0.2,34.3
						c0,0.7,0.6,1.2,1.2,1.2c24.8,0,49.6,0,74.4,0c0.7,0,1.2-0.5,1.2-1.2c0-11.5,0.6-23,1.3-34.5c0.1-1.6-2.3-1.5-2.4,0
						c-0.7,11.5-1.3,23-1.3,34.5c0.4-0.4,0.8-0.8,1.2-1.2c-24.8,0-49.6,0-74.4,0c0.4,0.4,0.8,0.8,1.2,1.2
						c0.3-11.4,0.5-22.9,0.2-34.3c-0.4,0.4-0.8,0.8-1.2,1.2c25.2,0.4,50.4-0.6,75.5-0.2C345.9,485,345.9,482.6,344.3,482.6z"/>
				</g>
			</g>
			<g>
				<path fill="#F5AB41" d="M268.6,475.1c10.5,0.2,67-0.3,75.5-0.2c-0.4-12.2-0.3-18.9,0.2-34.3h-74.4
					C269.9,454.1,268.6,475.1,268.6,475.1z"/>
				<g>
					<path fill="#F5AB41" d="M268.6,476c25.2,0.4,50.4-0.6,75.5-0.2c0.5,0,0.9-0.4,0.9-0.9c-0.4-11.4-0.2-22.9,0.2-34.3
						c0-0.5-0.4-0.9-0.9-0.9c-24.8,0-49.6,0-74.4,0c-0.5,0-0.9,0.4-0.9,0.9c0,11.5-0.6,23-1.3,34.5c-0.1,1.1,1.7,1.1,1.7,0
						c0.7-11.5,1.3-23,1.3-34.5c-0.3,0.3-0.6,0.6-0.9,0.9c24.8,0,49.6,0,74.4,0c-0.3-0.3-0.6-0.6-0.9-0.9
						c-0.3,11.4-0.5,22.9-0.2,34.3c0.3-0.3,0.6-0.6,0.9-0.9c-25.2-0.4-50.4,0.6-75.5,0.2C267.5,474.3,267.5,476,268.6,476z"/>
				</g>
			</g>
		</g>
		<path fill="#F5AB41" d="M369.9,417c-1.9,2-12.5,11-14.1,12.6c-1.5-1.6-2.3-2.4-4.4-4.3l14.2-14.2C367.4,412.9,369.9,417,369.9,417
			z"/>
		<path fill="#F5AB41" d="M384.2,455.2c-2.6,0.9-19.3,5.6-21.5,6.3c-0.6-2.1-1-3.2-2-5.8l20.9-8.7
			C382.3,449.4,384.2,455.2,384.2,455.2z"/>
		<path fill="#F5AB41" d="M394.8,492.4c-2.7-0.4-28-3.9-30.2-4.2c-0.2,2.2-0.3,3.4-0.8,6.1l30,6.6
			C394.2,498.5,394.8,492.4,394.8,492.4z"/>
		<path fill="#F5AB41" d="M251,411.6c2,1.9,11,12.5,12.6,14.1c-1.6,1.5-2.4,2.3-4.3,4.4l-14.2-14.2C246.9,414.2,251,411.6,251,411.6
			z"/>
		<path fill="#F5AB41" d="M310.7,398.7c-0.4,2.7-3.9,28-4.2,30.2c2.2,0.2,3.4,0.3,6.1,0.8l6.6-30
			C316.8,399.3,310.7,398.7,310.7,398.7z"/>
		<path fill="#F5AB41" d="M373.3,545c-2-1.9-11-12.5-12.6-14.1c1.6-1.5,2.4-2.3,4.3-4.4l14.2,14.2C377.5,542.4,373.3,545,373.3,545z
			"/>
		<path fill="#F5AB41" d="M224.9,455.2c2.6,0.9,19.3,5.6,21.5,6.3c0.6-2.1,1-3.2,2-5.8l-20.9-8.7
			C226.7,449.4,224.9,455.2,224.9,455.2z"/>
		<path fill="#F5AB41" d="M221.1,489.5c2.7-0.4,28-3.9,30.2-4.2c0.2,2.2,0.3,3.4,0.8,6.1l-30,6.6
			C221.8,495.7,221.1,489.5,221.1,489.5z"/>
		<path fill="#F5AB41" d="M235.7,541.4c2-1.9,11-12.5,12.6-14.1c-1.6-1.5-2.4-2.3-4.3-4.4l-14.2,14.2
			C231.6,538.9,235.7,541.4,235.7,541.4z"/>
		<path fill="#F5AB41" d="M278.3,553.4c0.3-2.1,3.1-21.4,3.3-23.1c-2.2-0.2-3.4-0.4-6.1-0.8l-5.7,22.9
			C272.2,552.7,278.3,553.4,278.3,553.4z"/>
		<path fill="#F5AB41" d="M320.8,555.7c-0.4-2.7-4.1-27.9-4.4-30.1c-2.1,0.5-3.3,0.6-6,0.9l2,30.7
			C314.8,556.8,320.8,555.7,320.8,555.7z"/>
	</g>
	<g>
		<g>
			<g>
				<path fill="#F5AB41" d="M559.6,468.2c-10.4-16.1-20.6-31.3-24.5-35.7c-3.3,2.5-15.3,18.7-27,35L559.6,468.2z"/>
				<g>
					<path fill="#F5AB41" d="M561,467.3c-4.8-7.5-9.7-14.9-14.7-22.2c-3.2-4.7-6.4-9.6-10.1-13.9c-0.7-0.8-1.7-0.6-2.4,0
						c-4,3.3-7.1,8.1-10.3,12.2c-5.8,7.6-11.4,15.4-17,23.2c-0.8,1.1,0.3,2.6,1.5,2.6c17.2,0.2,34.4,0.5,51.5,0.7
						c2.2,0,2.2-3.4,0-3.5c-17.2-0.2-34.4-0.5-51.5-0.7c0.5,0.9,1,1.7,1.5,2.6c5.4-7.5,10.8-15,16.4-22.3c3.1-4.1,6.3-9.1,10.4-12.4
						c-0.8,0-1.6,0-2.4,0c3.6,4.1,6.5,8.7,9.6,13.2c5,7.3,9.9,14.8,14.7,22.2C559.3,470.9,562.3,469.2,561,467.3z"/>
				</g>
			</g>
			<g>
				<g>
					<path fill="#585656" d="M563.1,480.1c2.1,2.8,24,33.1,28.1,39.3c0,0-72.9,1.3-109.3-0.8c0,0,12.1-20.1,24.6-40
						C506.5,478.6,561,477.2,563.1,480.1z"/>
					<g>
						<path fill="#585656" d="M562.1,480.7c9.5,13,19.1,26,28.1,39.3c0.3-0.6,0.7-1.2,1-1.8c-36.4,0.7-73,1.3-109.3-0.8
							c0.3,0.6,0.7,1.2,1,1.8c5.6-9.2,11.2-18.4,16.8-27.5c2.3-3.8,4.7-7.5,7-11.3c0.4-0.6-0.7-0.5,0-0.6c0.3,0,0.7,0,1,0
							c2.8-0.1,5.6-0.1,8.4-0.2c9.3-0.1,18.5-0.2,27.8-0.1c4.1,0.1,8.2,0.2,12.3,0.5c1.3,0.1,5.1,0,5.9,0.9c1,1.2,2.7-0.6,1.7-1.7
							c-1.2-1.3-3.9-1.3-5.4-1.4c-3.9-0.4-7.9-0.5-11.9-0.6c-10-0.2-19.9-0.1-29.9,0c-3,0-6,0.1-9,0.2c-0.4,0-0.9,0-1.3,0
							c-1,0-1.3,1.1-1.8,1.7c-1.4,2.3-2.8,4.6-4.3,6.8c-6.6,10.6-13.1,21.3-19.6,32c-0.5,0.8,0.2,1.8,1,1.8c36.3,2,73,1.4,109.3,0.8
							c0.9,0,1.6-1,1-1.8c-9-13.3-18.6-26.3-28.1-39.3C563.3,478.2,561.2,479.4,562.1,480.7z"/>
					</g>
				</g>
			</g>
		</g>
		<path fill="#F5AB41" d="M611.9,451.1c-3.1,2.4-19.2,13.4-21.6,15.4c-1.2-1.8-2-2.7-3.8-4.8l22.3-17.2
			C610.2,446.4,611.9,451.1,611.9,451.1z"/>
		<path fill="#F5AB41" d="M636.2,493.3c-2.7,0.5-27.8,4.9-30,5.3c0.5,2.1,0.7,3.3,1.1,6l30.6-3C637.5,499.3,636.2,493.3,636.2,493.3
			z"/>
		<path fill="#F5AB41" d="M619,470.6c-2.1,0.5-21.4,5.2-23.1,5.6c0.6,2.1,0.9,3.2,1.5,5.9l23.8-3.3C620.6,476.5,619,470.6,619,470.6
			z"/>
		<path fill="#F5AB41" d="M592.8,409.2c-1.3,2.4-13.4,24.9-14.4,26.8c2,0.9,3,1.5,5.4,2.9l16.7-25.9
			C598.3,411.9,592.8,409.2,592.8,409.2z"/>
		<path fill="#F5AB41" d="M463.7,426.9c2.2,1.7,13.8,9.3,15.6,10.7c1.2-1.8,2-2.7,3.8-4.8l-15.9-12.2
			C465.7,422.5,463.7,426.9,463.7,426.9z"/>
		<path fill="#F5AB41" d="M450,457.7c2.7,0.5,27.8,4.9,30,5.3c-0.5,2.1-0.7,3.3-1.1,6l-30.6-3C448.8,463.8,450,457.7,450,457.7z"/>
		<path fill="#F5AB41" d="M439.8,502.9c2.8-0.3,28.1-2.7,30.3-2.9c0.1,2.2,0.2,3.4,0.5,6.1l-30.3,5.4
			C440.1,509,439.8,502.9,439.8,502.9z"/>
		<path fill="#F5AB41" d="M561.9,563.8c-0.7-2.7-7.1-27.3-7.7-29.5c2.1-0.4,3.3-0.7,5.9-1.5l10.1,29.1
			C567.9,562.5,561.9,563.8,561.9,563.8z"/>
		<path fill="#F5AB41" d="M615,544.7c-2-1.9-11-12.5-12.6-14.1c1.6-1.5,2.4-2.3,4.3-4.4l14.2,14.2C619.2,542.1,615,544.7,615,544.7z
			"/>
		<path fill="#F5AB41" d="M460.8,548.3c2-1.9,11-12.5,12.6-14.1c-1.6-1.5-2.4-2.3-4.3-4.4l-14.2,14.2
			C456.6,545.8,460.8,548.3,460.8,548.3z"/>
		<path fill="#F5AB41" d="M512.9,561.1c0.2-2,1.7-20.7,1.8-22.4c-2.2-0.1-3.4-0.1-6.1-0.4l-4.2,22.3
			C506.7,560.8,512.9,561.1,512.9,561.1z"/>
		<path fill="#F5AB41" d="M533.8,416.2c-0.4-2.7-4.1-27.9-4.4-30.1c-2.1,0.5-3.3,0.6-6,0.9l2,30.7
			C527.7,417.3,533.8,416.2,533.8,416.2z"/>
	</g>
	<g>
		<path fill="#F5AB41" d="M136.8,408c-1.7,2.2-11.2,12.3-12.6,14.1c-1.6-1.4-2.6-2.2-4.8-3.8l12.5-15.6
			C133.8,404.2,136.8,408,136.8,408z"/>
		<path fill="#F5AB41" d="M159.8,432.3c-2.6,0.9-19.3,5.6-21.5,6.3c-0.6-2.1-1-3.2-2-5.8l20.9-8.7
			C158,426.4,159.8,432.3,159.8,432.3z"/>
		<path fill="#F5AB41" d="M174.5,452.4c-2.8,0.3-28.1,2.7-30.3,2.9c0.3,2.2,0.4,3.3,0.6,6.1l30.8-0.5
			C175.3,458.4,174.5,452.4,174.5,452.4z"/>
		<path fill="#F5AB41" d="M175.4,480.2c-2.7-0.4-27.9-4.2-30.1-4.5c-0.2,2.2-0.4,3.4-0.9,6.1l30,6.9
			C174.7,486.3,175.4,480.2,175.4,480.2z"/>
		<path fill="#F5AB41" d="M37.8,530.9c2.4-2.4,15-13.5,16.9-15.5c1.5,1.6,2.3,2.4,4.4,4.3l-17.2,17.2
			C40.2,535.2,37.8,530.9,37.8,530.9z"/>
		<path fill="#F5AB41" d="M20,497c3.1-1.1,23.2-6.8,25.7-7.7c0.7,2.5,1.2,3.9,2.4,7l-25,10.5C22.1,504,20,497,20,497z"/>
		<path fill="#F5AB41" d="M9.2,465.5c2.8,0,28.2-0.2,30.5-0.2c-0.2-2.2-0.2-3.4-0.1-6.1L8.9,457C9,459.4,9.2,465.5,9.2,465.5z"/>
		<path fill="#F5AB41" d="M42.7,416.4c2,1.9,11,12.5,12.6,14.1c-1.6,1.5-2.4,2.3-4.3,4.4l-14.2-14.2C38.6,419,42.7,416.4,42.7,416.4
			z"/>
		<path fill="#F5AB41" d="M69,393.6c0.9,2.6,5.6,19.3,6.3,21.5c-2.1,0.6-3.2,1-5.8,2l-8.7-20.9C63.1,395.5,69,393.6,69,393.6z"/>
		<path fill="#F5AB41" d="M94.5,385.5c-0.4,2.7-3.9,28-4.2,30.2c2.2,0.2,3.4,0.3,6.1,0.8l6.6-30C100.6,386.1,94.5,385.5,94.5,385.5z
			"/>
		<path fill="#F5AB41" d="M151.6,523.2c-2.8-2.7-15.7-17.2-17.9-19.4c1.6-1.4,2.5-2.3,4.3-4.4l19.8,19.8
			C156.1,521,151.6,523.2,151.6,523.2z"/>
		<path fill="#F5AB41" d="M118,544.7c-0.9-2.6-5.6-19.3-6.3-21.5c2.1-0.6,3.2-1,5.8-2l8.7,20.9C123.8,542.9,118,544.7,118,544.7z"/>
		<path fill="#F5AB41" d="M84,554.2c0.4-2.7,3.9-28,4.2-30.2c-2.2-0.2-3.4-0.3-6.1-0.8l-6.6,30C77.9,553.6,84,554.2,84,554.2z"/>
		<g>
			<g>
				<path fill="#F5AB41" d="M131.8,463.4c-3-28.7-19-42.7-42.7-39.2c-20.6,3-34.9,14.2-34.9,39.2H131.8z"/>
				<g>
					<path fill="#F5AB41" d="M133,463.4c-1.3-11.3-4.5-22.8-12.6-31.2c-7-7.3-17.1-10.1-27-9.6c-10.4,0.5-21.2,3.9-29,10.9
						c-8.5,7.5-11.4,19-11.5,30c0,0.7,0.6,1.2,1.2,1.2c25.9,0,51.8,0,77.6,0c1.6,0,1.6-2.4,0-2.4c-25.9,0-51.8,0-77.6,0
						c0.4,0.4,0.8,0.8,1.2,1.2c0.1-10.6,2.8-20.9,10.7-28.3c7.2-6.7,17.7-9.5,27.3-10.2c9.4-0.6,18.6,2.2,25.3,8.9
						c7.7,7.7,10.7,19,11.9,29.5C130.8,464.9,133.2,465,133,463.4z"/>
				</g>
			</g>
			<g>
				<path fill="#585656" d="M53.8,472.8c3,28.7,19,42.7,42.7,39.2c20.6-3,34.9-14.2,34.9-39.2H53.8z"/>
				<g>
					<path fill="#585656" d="M52.6,472.8c1.3,11.3,4.5,22.8,12.6,31.2c7,7.3,17.1,10.1,27,9.6c10.4-0.5,21.2-3.9,29-10.9
						c8.5-7.5,11.4-19,11.5-30c0-0.7-0.6-1.2-1.2-1.2c-25.9,0-51.8,0-77.6,0c-1.6,0-1.6,2.4,0,2.4c25.9,0,51.8,0,77.6,0
						c-0.4-0.4-0.8-0.8-1.2-1.2c-0.1,10.6-2.8,20.9-10.7,28.3c-7.2,6.7-17.7,9.5-27.3,10.2c-9.4,0.6-18.6-2.2-25.3-8.9
						c-7.7-7.7-10.7-19-11.9-29.5C54.8,471.2,52.4,471.2,52.6,472.8z"/>
				</g>
			</g>
		</g>
	</g>
	<g>
		<g>
			<path fill="#F5AB41" d="M79.6,144.2c6.9-1.4,17.4,5.4,17.5,12.9c0,1.4-0.3,3.9-2.3,3.6c-1.1-0.2-2.3-1.1-1.3-2.1
				c2-2.1,4.4,0.3,5.4,2c2.2,3.8-0.1,10.2-3.4,12.5c-0.9,0.6-0.1,2.1,0.9,1.5c4.9-3.3,7.7-13.5,1.9-17.5c-4.3-3-10.6,2.9-4.5,5
				c5.3,1.8,5.7-5.8,4.3-9.1c-2.8-6.6-11.9-11.9-18.9-10.6C78,142.7,78.5,144.4,79.6,144.2L79.6,144.2z"/>
		</g>
		<g>
			<path fill="#F5AB41" d="M91.5,168.1c1.1,2.5,2.3,4.9,2.8,7.6c0.1,0.6,0.8,0.8,1.3,0.5c2.8-1.5,5.7-3.1,8.1-5.1
				c0.9-0.7-0.4-1.9-1.2-1.2c-2.3,1.9-5.1,3.4-7.8,4.9c0.4,0.2,0.8,0.3,1.3,0.5c-0.6-2.8-1.9-5.4-3-8
				C92.5,166.2,91,167.1,91.5,168.1L91.5,168.1z"/>
		</g>
	</g>
	<g>
		<g>
			<path fill="#F5AB41" d="M301.2,144.2c6.9-1.4,17.4,5.4,17.5,12.9c0,1.4-0.3,3.9-2.3,3.6c-1.1-0.2-2.3-1.1-1.3-2.1
				c2-2.1,4.4,0.3,5.4,2c2.2,3.8-0.1,10.2-3.4,12.5c-0.9,0.6-0.1,2.1,0.9,1.5c4.9-3.3,7.7-13.5,1.9-17.5c-4.3-3-10.6,2.9-4.5,5
				c5.3,1.8,5.7-5.8,4.3-9.1c-2.8-6.6-11.9-11.9-18.9-10.6C299.6,142.7,300.1,144.4,301.2,144.2L301.2,144.2z"/>
		</g>
		<g>
			<path fill="#F5AB41" d="M313.1,168.1c1.1,2.5,2.3,4.9,2.8,7.6c0.1,0.6,0.8,0.8,1.3,0.5c2.8-1.5,5.7-3.1,8.1-5.1
				c0.9-0.7-0.4-1.9-1.2-1.2c-2.3,1.9-5.1,3.4-7.8,4.9c0.4,0.2,0.8,0.3,1.3,0.5c-0.6-2.8-1.9-5.4-3-8
				C314.2,166.2,312.7,167.1,313.1,168.1L313.1,168.1z"/>
		</g>
	</g>
	<g>
		<g>
			<path fill="#F5AB41" d="M519.4,144.2c6.9-1.4,17.4,5.4,17.5,12.9c0,1.4-0.3,3.9-2.3,3.6c-1.1-0.2-2.3-1.1-1.3-2.1
				c2-2.1,4.4,0.3,5.4,2c2.2,3.8-0.1,10.2-3.4,12.5c-0.9,0.6-0.1,2.1,0.9,1.5c4.9-3.3,7.7-13.5,1.9-17.5c-4.3-3-10.6,2.9-4.5,5
				c5.3,1.8,5.7-5.8,4.3-9.1c-2.8-6.6-11.9-11.9-18.9-10.6C517.8,142.7,518.3,144.4,519.4,144.2L519.4,144.2z"/>
		</g>
		<g>
			<path fill="#F5AB41" d="M531.3,168.1c1.1,2.5,2.3,4.9,2.8,7.6c0.1,0.6,0.8,0.8,1.3,0.5c2.8-1.5,5.7-3.1,8.1-5.1
				c0.9-0.7-0.4-1.9-1.2-1.2c-2.3,1.9-5.1,3.4-7.8,4.9c0.4,0.2,0.8,0.3,1.3,0.5c-0.6-2.8-1.9-5.4-3-8
				C532.3,166.2,530.9,167.1,531.3,168.1L531.3,168.1z"/>
		</g>
	</g>
	<g>
		<g>
			<path fill="#F5AB41" d="M80.3,352.2c2,1.8,4.1,3.5,5.7,5.8c0.3,0.4,1,0.7,1.4,0.2c1.9-2.5,4-5.1,5.4-8c0.5-1-1-1.9-1.5-0.9
				c-1.3,2.7-3.5,5.5-5.1,7.6c0.5,0.1,0.9,0.1,1.4,0.2c-1.7-2.4-3.9-4.2-6-6.1C80.7,350.2,79.4,351.5,80.3,352.2L80.3,352.2z"/>
		</g>
		<g>
			<path fill="#F5AB41" d="M86,325c0,0,0,20,0,30c0,1,2,1,2,0v-1c0-1-2-1-2,0v1c0,1,2,1,2,0c0-10,0-20,0-30C88,324,86,324,86,325
				C86,325,86,324,86,325z"/>
		</g>
	</g>
	<g>
		<g>
			<path fill="#F5AB41" d="M307.4,352.2c2,1.8,4.1,3.5,5.7,5.8c0.3,0.4,1,0.7,1.4,0.2c1.9-2.5,4-5.1,5.4-8c0.5-1-1-1.9-1.5-0.9
				c-1.3,2.7-3.5,5.5-5.1,7.6c0.5,0.1,0.9,0.1,1.4,0.2c-1.7-2.4-3.9-4.2-6-6.1C307.8,350.2,306.6,351.5,307.4,352.2L307.4,352.2z"/>
		</g>
		<g>
			<path fill="#F5AB41" d="M313,325c0,0,0,20,0,30c0,1,2,1,2,0v-1c0-1-2-1-2,0v1c0,1,2,1,2,0c0-10,0-20,0-30
				C315,324,313,324,313,325C313,325,313,324,313,325z"/>
		</g>
	</g>
	<g>
		<g>
			<path fill="#F5AB41" d="M527.7,352.2c2,1.8,4.1,3.5,5.7,5.8c0.3,0.4,1,0.7,1.4,0.2c1.9-2.5,4-5.1,5.4-8c0.5-1-1-1.9-1.5-0.9
				c-1.3,2.7-3.5,5.5-5.1,7.6c0.5,0.1,0.9,0.1,1.4,0.2c-1.7-2.4-3.9-4.2-6-6.1C528.1,350.2,526.8,351.5,527.7,352.2L527.7,352.2z"/>
		</g>
		<g>
			<path fill="#F5AB41" d="M534,325c0,0,0,20,0,30c0,1,1,1,1,0v-1c0-1-1-1-1,0v1c0,1,1,1,1,0c0-10,0-20,0-30
				C535,324,534,324,534,325C534,325,534,324,534,325z"/>
		</g>
	</g>
</g>
</svg>
