<?xml version="1.0" encoding="utf-8"?>
<!-- Generator: Adobe Illustrator 17.0.0, SVG Export Plug-In . SVG Version: 6.00 Build 0)  -->
<!DOCTYPE svg PUBLIC "-//W3C//DTD SVG 1.1//EN" "http://www.w3.org/Graphics/SVG/1.1/DTD/svg11.dtd">
<svg version="1.1" id="Layer_1" xmlns="http://www.w3.org/2000/svg" xmlns:xlink="http://www.w3.org/1999/xlink" x="0px" y="0px"
	 width="552.6px" height="464.4px" viewBox="0 0 552.6 464.4" enable-background="new 0 0 552.6 464.4" xml:space="preserve">
<g>
	<g>
		<path fill="#F6AC40" d="M482.2,159.1c-2.8,17.3-8.5,83.9-8.5,83.9c-87.4-15.2-183.3,61-177.7,142.3L5.6,370
			c0-110.2-2.8-358.3-2.8-358.3c34.6-11,75.5-8.8,111.3-9c43.6-0.2,87.4,0.9,130.9,3.9c51.7,3.5,93,20.9,132.9,53.8
			C414.9,90.9,445.8,127.9,482.2,159.1"/>
		<g>
			<path fill="#F6AC40" d="M481.4,158.9c-4.4,27.7-6.1,56-8.5,84c0.3-3.1-28.2-2.5-31.4-2.3c-11.2,0.7-22.4,2.8-33.2,6
				c-21.7,6.3-41.9,17.2-59.5,31.3c-17.3,13.8-31.9,31.2-41.8,51c-4.6,9.3-8,19.2-10.1,29.4c-0.6,3.1-4,26.1-1.1,26.2
				c-13.8-0.7-27.6-1.5-41.5-2.2c-61.5-3.2-123.1-6.5-184.6-9.7c-19.9-1-39.7-2.1-59.6-3.1c-1.5-0.1-3-0.2-4.4-0.2
				c0.3,0,0.5-2.4,0.5-3.8c0-4.1,0-8.2,0-12.4c0-18.3-0.1-36.5-0.2-54.8C5.6,219.5,4.9,140.8,4,62C3.9,45.3,3.7,28.6,3.5,11.8
				c0,0,11.4-2.7,12.7-2.9c7.9-1.8,16-2.9,24-3.7C55,3.6,69.8,3.4,84.7,3.4c31.6,0,63.3-0.1,94.9,0.8c31.3,0.9,63.6,1.1,94.5,6.8
				c26,4.8,50.7,14.6,73.2,28.3c51.1,31.2,88.3,80.3,133,119.2c0.5,0.4,0.9,0.8,1.4,1.2c0.7,0.6,1.8-0.4,1.1-1.1
				c-44.4-38.3-81.1-86-130.7-118.1c-21.4-13.8-45-23.7-69.8-29.4c-28.9-6.6-59.2-6.9-88.7-8c-33.3-1.2-66.7-1.1-100-1.2
				C63,1.7,31.9,1.8,2.6,11C2.2,11.1,2,11.3,2,11.7c0.6,51.5,1.1,103,1.6,154.5C4.2,234.1,4.8,302,4.8,370c0,0.4,0.3,0.7,0.8,0.8
				c42.3,2.2,84.6,4.4,126.8,6.7c52.6,2.8,105.2,5.5,157.7,8.3c2,0.1,3.9,0.2,5.9,0.3c0.4,0,0.8-0.4,0.8-0.8
				c-2.7-42.2,21.3-80.5,53.2-106.4c34.1-27.7,79.8-42.6,123.5-35.2c0.5,0.1,0.9-0.2,0.9-0.7c2.4-27.8,4-56.1,8.4-83.7
				C483,158.3,481.6,157.9,481.4,158.9L481.4,158.9z"/>
		</g>
	</g>
	<g>
		<path fill="#FFFFFF" d="M45.1,34.5c0,43.2,0,96.6,0,137.2l375.1-2.5C346.8,44.7,186.1,34.5,45.1,34.5"/>
		<g>
			<path fill="#FFFFFF" d="M44.3,34.5c0,45.7,0,91.5,0,137.2c0,0.4,0.3,0.8,0.8,0.8c36.1-0.2,72.2-0.5,108.4-0.7
				c63.5-0.4,127.1-0.9,190.6-1.3c25.4-0.2,50.7-0.3,76.1-0.5c0.6,0,0.9-0.6,0.6-1.1c-22.6-38-55.4-67.8-94.5-88.3
				C286.5,59.6,242,48.7,197.7,42.3C147.2,35,96,33.8,45.1,33.8c-1,0-1,1.5,0,1.5c47.2,0,94.4,1.1,141.3,6.9
				c45.8,5.7,91.7,16.2,133.3,36.6c41.3,20.2,76.3,51.1,99.8,90.8c0.2-0.4,0.4-0.8,0.6-1.1c-36.1,0.2-72.2,0.5-108.4,0.7
				c-63.5,0.4-127.1,0.9-190.6,1.3c-21,0.1-42,0.3-63.1,0.4c-4.1,0-8.3,0.1-12.4,0.1c-0.2,0-0.4,0-0.6,0c1.4,0,0.7-17.8,0.7-19.7
				c0-14.3,0-28.5,0-42.8c0-24.7,0-49.3,0-74C45.8,33.6,44.3,33.6,44.3,34.5L44.3,34.5z"/>
		</g>
	</g>
	<g>
		<path fill="#FFFFFF" d="M47.9,211.8c18.9,0,36.5,0,57.5,0l9-0.4c0,6.8,0,16.9,0,27.1v-0.4c-18.9,0-36.5,0-57.5,0l-9,0.4
			c0-6.8,0-16.9,0-27.1"/>
		<g>
			<path fill="#FFFFFF" d="M47.9,212.6c17.9,0,35.7,0,53.6,0c4.3,0,8.5-0.2,12.7-0.4c-1.3,0.1-0.6,24-0.6,26.3c0.5,0,1,0,1.5,0
				c0-0.1,0-0.3,0-0.4c0-0.4-0.3-0.8-0.8-0.8c-17.9,0-35.7,0-53.6,0c-4.3,0-8.5,0.2-12.7,0.4c1.3-0.1,0.6-24,0.6-26.3
				c0-1-1.5-1-1.5,0c0,9,0,18.1,0,27.1c0,0.4,0.3,0.8,0.8,0.8c7-0.3,65.7-0.4,65.7-0.8c0,1,1.5,1,1.5,0c0-9,0-18.1,0-27.1
				c0-0.4-0.3-0.8-0.8-0.8c-22.1,1-44.3,0.4-66.4,0.4C46.9,211.1,46.9,212.6,47.9,212.6L47.9,212.6z"/>
		</g>
	</g>
</g>
<g>
	<g>
		<path fill="#FCE2BB" d="M409.3,431.8c-30.5-11.5-55.3-38.1-56.3-71.8c-0.2-6.4-10.2-6.5-10,0c1.2,38.5,28.9,68.4,63.7,81.5
			C412.7,443.7,415.3,434,409.3,431.8L409.3,431.8z"/>
	</g>
	<g>
		<path fill="#FCE2BB" d="M357.9,334.7c8.1-19.3,20.8-36.8,39.7-46.5c15.3-7.9,33.3-8.6,49.8-4.2c6.2,1.7,8.9-8,2.7-9.6
			c-19-5.1-38.7-3.8-56.4,4.7c-21.9,10.4-36.3,31.3-45.3,53C345.7,338,355.4,340.5,357.9,334.7L357.9,334.7z"/>
	</g>
	<g>
		<path fill="#FCE2BB" d="M439.4,268.7c3.3,4.9,6.6,9.9,9,15.3c0.3-2,0.5-4,0.8-6.1c-4.3,4-9.9,6.3-15.3,8.6
			c-5.8,2.5-3.3,12.1,2.7,9.6c7.1-3,14-5.9,19.7-11.2c1.8-1.6,1.7-4,0.8-6.1c-2.4-5.4-5.7-10.4-9-15.3
			C444.5,258.3,435.8,263.3,439.4,268.7L439.4,268.7z"/>
	</g>
	<g>
		<path fill="#FCE2BB" d="M338.6,373c3.9-4.5,7.8-8.9,12.4-12.7c-2,0.3-4,0.5-6.1,0.8c5.4,3.4,9.2,8.6,13.1,13.5
			c4,5.1,11-2.1,7.1-7.1c-4.4-5.7-8.9-11.2-15.1-15.1c-2-1.3-4.3-0.6-6.1,0.8c-4.6,3.7-8.6,8.2-12.4,12.7
			C327.3,370.7,334.4,377.8,338.6,373L338.6,373z"/>
	</g>
	<g>
		<path fill="#FCE2BB" d="M469.5,287c30.5,11.5,55.3,38.1,56.3,71.8c0.2,6.4,10.2,6.5,10,0c-1.2-38.5-28.9-68.4-63.7-81.5
			C466.1,275.1,463.5,284.7,469.5,287L469.5,287z"/>
	</g>
	<g>
		<path fill="#FCE2BB" d="M520.9,384.1c-8.1,19.3-20.8,36.8-39.7,46.5c-15.3,7.9-33.3,8.6-49.8,4.2c-6.2-1.7-8.9,8-2.7,9.6
			c19,5.1,38.7,3.8,56.4-4.7c21.9-10.4,36.3-31.3,45.3-53C533.1,380.8,523.4,378.2,520.9,384.1L520.9,384.1z"/>
	</g>
	<g>
		<path fill="#FCE2BB" d="M439.4,454.1c-3.3-4.9-6.6-9.9-9-15.3c-0.3,2-0.5,4-0.8,6.1c4.3-4,9.9-6.3,15.3-8.6
			c5.8-2.5,3.3-12.1-2.7-9.6c-7.1,3-14,5.9-19.7,11.2c-1.8,1.6-1.7,4-0.8,6.1c2.4,5.4,5.7,10.4,9,15.3
			C434.3,464.4,443,459.4,439.4,454.1L439.4,454.1z"/>
	</g>
	<g>
		<path fill="#FCE2BB" d="M540.2,345.8c-3.9,4.5-7.8,8.9-12.4,12.7c2-0.3,4-0.5,6.1-0.8c-5.4-3.4-9.2-8.6-13.1-13.5
			c-4-5.1-11,2.1-7.1,7.1c4.4,5.7,8.9,11.2,15.1,15.1c2,1.3,4.3,0.6,6.1-0.8c4.6-3.7,8.6-8.2,12.4-12.7
			C551.5,348,544.4,340.9,540.2,345.8L540.2,345.8z"/>
	</g>
</g>
</svg>
