<?xml version="1.0" encoding="utf-8"?>
<!-- Generator: Adobe Illustrator 17.0.0, SVG Export Plug-In . SVG Version: 6.00 Build 0)  -->
<!DOCTYPE svg PUBLIC "-//W3C//DTD SVG 1.1//EN" "http://www.w3.org/Graphics/SVG/1.1/DTD/svg11.dtd">
<svg version="1.1" id="Layer_1" xmlns="http://www.w3.org/2000/svg" xmlns:xlink="http://www.w3.org/1999/xlink" x="0px" y="0px"
	 width="933px" height="472.5px" viewBox="0 0 933 472.5" enable-background="new 0 0 933 472.5" xml:space="preserve">
<g>
	<g>
		<path fill="#B88DBD" d="M8.1,467.1c114.8,2.1,726.8-1.9,820,0c4.1-69.9,0-288,0-410.1l-820,0.2C6.5,125.5,8.1,467.1,8.1,467.1z"/>
	</g>
	<g>
		<path fill="#995CA0" d="M44.9,427c104.5,1.4,661.7-1.2,746.5,0c3.7-45.7,0-188.2,0-268L45,159.1C43.5,203.8,44.9,427,44.9,427z"/>
	</g>
	<g>
		<path fill="#FFFFFF" d="M829.6,272.7c-0.5,15.3,0.9,97.4,0.5,109.8c33.2-0.6,51.3-0.4,93.1,0.2V274.6
			C886.8,274.6,829.6,272.7,829.6,272.7z"/>
		<g>
			<path fill="#FFFFFF" d="M870.3,57.3c-0.2,31.3,0.3,195.2,0.2,220.6c16.7,0.6,21.8,0.6,33.7,0.5V57.1
				C891,57.1,870.3,57.3,870.3,57.3z"/>
			<g>
				<path fill="#FFFFFF" d="M894.8,4c48,19.7,10.8,82-30.3,59.7C832.4,46.2,862.7-9.2,894.8,4z"/>
			</g>
		</g>
	</g>
</g>
<g>
	<path fill="#B88DBD" d="M548.6,284.8c29.6,0.7,187.5-0.6,211.6,0c1.1-22,0-90.6,0-129l-211.5,0.1
		C548.2,177.3,548.6,284.8,548.6,284.8z"/>
</g>
<g>
	<path fill="#B88DBD" d="M67.3,387.6c29.6,1,187.5-0.9,211.6,0c1.1-32,0-131.9,0-187.9l-211.5,0.1C66.9,231.1,67.3,387.6,67.3,387.6
		z"/>
</g>
<g>
	<path fill="#B88DBD" d="M306,387.6c29.6,1,187.5-0.9,211.6,0c1.1-32,0-131.9,0-187.9L306,199.8C305.6,231.1,306,387.6,306,387.6z"
		/>
</g>
<g>
	<path fill="#B88DBD" d="M548.6,262.4c29.6,0.5,187.5-0.5,211.6,0c1.1-18.2,0-74.9,0-106.7l-211.5,0.1
		C548.2,173.5,548.6,262.4,548.6,262.4z"/>
</g>
<circle fill="#FFFFFF" cx="173.2" cy="287.4" r="62"/>
<circle fill="#FFFFFF" cx="411.9" cy="287.4" r="62"/>
<g>
	<defs>
		<path id="SVGID_1_" d="M548.6,287c29.6,0.6,187.5-0.6,211.6,0c1.1-21.8,0-89.9,0-128L548.7,159C548.2,180.4,548.6,287,548.6,287z"
			/>
	</defs>
	<clipPath id="SVGID_2_">
		<use xlink:href="#SVGID_1_"  overflow="visible"/>
	</clipPath>
	<circle clip-path="url(#SVGID_2_)" fill="#FFFFFF" cx="654.6" cy="186.8" r="62"/>
</g>
<g>
	<g>
		<path fill="#B88DBD" d="M548.6,427.4c29.6,0.6,187.5-0.5,211.6,0c1.1-19.7,0-81.3,0-115.8l-211.5,0.1
			C548.2,331,548.6,427.4,548.6,427.4z"/>
	</g>
	<g>
		<defs>
			<path id="SVGID_3_" d="M548.6,427.4c29.6,0.6,187.5-0.5,211.6,0c1.1-19.7,0-81.3,0-115.8l-211.5,0.1
				C548.2,331,548.6,427.4,548.6,427.4z"/>
		</defs>
		<clipPath id="SVGID_4_">
			<use xlink:href="#SVGID_3_"  overflow="visible"/>
		</clipPath>
		<polygon clip-path="url(#SVGID_4_)" fill="#FFFFFF" points="620.8,462.8 587,404.3 620.8,345.9 688.3,345.9 722.1,404.3 
			688.3,462.8 		"/>
	</g>
</g>
<g>
	<defs>
		<path id="SVGID_5_" d="M548.6,427.5c29.6,0.6,187.5-0.6,211.6,0c1.1-21.5,0-88.5,0-125.9l-211.5,0.1
			C548.2,322.6,548.6,427.5,548.6,427.5z"/>
	</defs>
	<clipPath id="SVGID_6_">
		<use xlink:href="#SVGID_5_"  overflow="visible"/>
	</clipPath>
</g>
</svg>
