<?xml version="1.0" encoding="utf-8"?>
<!-- Generator: Adobe Illustrator 17.0.0, SVG Export Plug-In . SVG Version: 6.00 Build 0)  -->
<!DOCTYPE svg PUBLIC "-//W3C//DTD SVG 1.1//EN" "http://www.w3.org/Graphics/SVG/1.1/DTD/svg11.dtd">
<svg version="1.1" id="Layer_1" xmlns="http://www.w3.org/2000/svg" xmlns:xlink="http://www.w3.org/1999/xlink" x="0px" y="0px"
	 width="393.6px" height="120px" viewBox="0 0 393.6 120" enable-background="new 0 0 393.6 120" xml:space="preserve">
<g>
	<g>
		<g>
			<path fill="#C5E4E6" d="M24.4,112.6c-3.6-5.6-24-35-10.2-37.9c0,0,374.5-22.9,375.9-18.7c1.4,4.2-11,36.7-19.1,38.2
				C331,101.2,28,118.1,24.4,112.6z"/>
		</g>
		<g>
			<g>
				<g>
					<polygon fill="#FFFFFF" points="269,12 269.6,37.7 284.9,37.5 279.2,10 					"/>
				</g>
				<g>
					<polygon fill="#C5E4E6" points="239.8,8.4 242.1,37.3 224.8,38.9 228,7.3 					"/>
				</g>
				<g>
					<polygon fill="#FFFFFF" points="180.8,14 181.3,39.7 196.6,39.5 191,12 					"/>
				</g>
				<g>
					<polygon fill="#C5E4E6" points="135.1,11.8 135.7,40.3 152.7,40 146.4,9.6 					"/>
				</g>
				<path fill="#FFFFFF" d="M333.9,49.4l-23.2,0.5c0,0,0,0-5.1-13.3c0-2.2-210.4,4.1-210.4,4.1c-3.4,12.2-3.4,12.2-3.4,12.2
					s-89.7,0-89.9,0.9c0,0-0.1,8.3-0.1,8.3S9.2,63,9.2,63C8,70.2,5.1,89.3,18.9,89c0,0,211.3-4.2,226.1-4.4s92.2-0.6,108.3-2.3
					c6.8-0.7,13.6-1.8,20.4-2.9c3.5-0.6,7.5-1,10.4-3.4c3.8-3.1,7.2-28.1,7.6-28.1C391.6,48,333.9,49.4,333.9,49.4z"/>
			</g>
		</g>
	</g>
	<ellipse fill="#C5E4E6" cx="113.5" cy="59.4" rx="4.9" ry="5.6"/>
	<ellipse fill="#C5E4E6" cx="146.3" cy="55.4" rx="4.9" ry="5.6"/>
	<ellipse fill="#C5E4E6" cx="211.2" cy="55.4" rx="4.9" ry="5.6"/>
	<ellipse fill="#C5E4E6" cx="244.8" cy="56.7" rx="4.9" ry="5.6"/>
	<ellipse fill="#C5E4E6" cx="279.7" cy="54.1" rx="4.9" ry="5.6"/>
	<ellipse fill="#C5E4E6" cx="178.3" cy="54.1" rx="4.9" ry="5.6"/>
</g>
</svg>
